<svg width="512" height="512" viewBox="0 0 512 512" fill="none" xmlns="http://www.w3.org/2000/svg">
<path fill-rule="evenodd" clip-rule="evenodd" d="M282.194 510.676C411.274 497.557 512 388.542 512 256C512 114.615 397.385 0 256 0C114.615 0 0 114.615 0 256C0 352.324 53.199 436.222 131.818 479.917C180.739 464.052 227.195 443.583 237.5 421C244.301 406.097 233.287 391.002 223.456 377.528C216.971 368.639 211 360.456 211 353.5C211 320.569 300.5 310 300.5 310H331.5C331.5 310 248.5 320.5 252.5 353.5C253.84 364.557 262.721 373.406 272.808 383.458C282.974 393.588 294.364 404.939 300.5 421C315.277 459.681 289.253 500.629 282.194 510.676Z" fill="#242734"/>
<path d="M348.212 206.014C349.872 203.329 354.021 203.329 355.681 206.014L416.362 304.207C418.022 306.893 415.947 310.25 412.628 310.25H291.265C287.945 310.25 285.871 306.893 287.531 304.207L348.212 206.014Z" fill="white"/>
<path d="M164.723 183.276C166.612 180.005 171.334 180.005 173.223 183.276L242.282 302.889C244.17 306.161 241.809 310.25 238.032 310.25H99.9145C96.137 310.25 93.776 306.161 95.6648 302.889L164.723 183.276Z" fill="white"/>
<path d="M266.25 155C268.56 151 274.333 151 276.643 155L361.08 301.25C363.389 305.25 360.503 310.25 355.884 310.25H187.009C182.39 310.25 179.503 305.25 181.813 301.25L266.25 155Z" fill="white"/>
<path d="M148.413 115.398C139.829 115.398 132.87 126.079 132.87 139.255H163.957C163.957 126.079 156.998 115.398 148.413 115.398Z" fill="white"/>
<path d="M123.11 115.398C108.138 115.398 96 126.079 96 139.255H150.221C150.221 126.079 138.083 115.398 123.11 115.398Z" fill="white"/>
<path d="M134.316 106C125.532 106 118.411 115.386 118.411 126.965H150.221C150.221 115.386 143.1 106 134.316 106Z" fill="white"/>
<path d="M276 67C264.402 67 255 79.9837 255 96H297C297 79.9837 287.598 67 276 67Z" fill="white"/>
<path d="M250 79C237.85 79 228 86.6112 228 96H272C272 86.6112 262.15 79 250 79Z" fill="white"/>
<path d="M255 63C245.611 63 238 72.402 238 84H272C272 72.402 264.389 63 255 63Z" fill="white"/>
<path d="M396.5 139C387.94 139 381 147.954 381 159H412C412 147.954 405.06 139 396.5 139Z" fill="white"/>
<path d="M365 138C352.85 138 343 147.402 343 159H387C387 147.402 377.15 138 365 138Z" fill="white"/>
<path d="M377 127C364.297 127 354 136.402 354 148H400C400 136.402 389.703 127 377 127Z" fill="white"/>
<path d="M113.567 421.162C113.567 419.505 114.91 418.162 116.567 418.162H123.285C124.942 418.162 126.285 419.505 126.285 421.162V425.76C126.285 427.417 124.942 428.76 123.285 428.76H116.567C114.91 428.76 113.567 427.417 113.567 425.76V421.162Z" fill="white"/>
<path d="M117.379 394.3C118.857 393.079 120.994 393.079 122.473 394.3L144.391 412.402C147.282 414.79 145.594 419.487 141.844 419.487H98.008C94.258 419.487 92.5695 414.79 95.4607 412.402L117.379 394.3Z" fill="white"/>
<path d="M117.172 382.093C118.715 380.627 121.136 380.627 122.68 382.093L142.519 400.927C145.14 403.416 143.379 407.828 139.765 407.828H100.086C96.4722 407.828 94.7112 403.416 97.3322 400.928L117.172 382.093Z" fill="white"/>
<path d="M116.856 370.436C118.455 368.521 121.397 368.521 122.996 370.436L139.007 389.606C141.182 392.211 139.33 396.17 135.937 396.17H103.915C100.521 396.17 98.6693 392.211 100.845 389.606L116.856 370.436Z" fill="white"/>
<path d="M347.567 397.162C347.567 395.505 348.91 394.162 350.567 394.162H357.285C358.942 394.162 360.285 395.505 360.285 397.162V401.76C360.285 403.417 358.942 404.76 357.285 404.76H350.567C348.91 404.76 347.567 403.417 347.567 401.76V397.162Z" fill="white"/>
<path d="M351.379 370.3C352.857 369.079 354.994 369.079 356.473 370.3L378.391 388.402C381.282 390.79 379.594 395.487 375.844 395.487H332.008C328.258 395.487 326.569 390.79 329.461 388.402L351.379 370.3Z" fill="white"/>
<path d="M351.172 358.093C352.715 356.627 355.136 356.627 356.68 358.093L376.519 376.927C379.14 379.416 377.379 383.828 373.765 383.828H334.086C330.472 383.828 328.711 379.416 331.332 376.928L351.172 358.093Z" fill="white"/>
<path d="M350.856 346.436C352.455 344.521 355.397 344.521 356.996 346.436L373.007 365.606C375.182 368.211 373.33 372.17 369.937 372.17H337.915C334.521 372.17 332.669 368.211 334.845 365.606L350.856 346.436Z" fill="white"/>
</svg>
