<svg width="118" height="104" viewBox="0 0 118 104" fill="none" xmlns="http://www.w3.org/2000/svg">
<path d="M58.9712 81.6C59.5125 81.6 59.9512 81.1612 59.9512 80.62C59.9512 80.0787 59.5125 79.64 58.9712 79.64C58.43 79.64 57.9912 80.0787 57.9912 80.62C57.9912 81.1612 58.43 81.6 58.9712 81.6Z" fill="#CFCFCF"/>
<path d="M30.5012 7.81998V12.12" stroke="#BABABA" stroke-linecap="round" stroke-linejoin="round"/>
<path d="M28.3412 9.97H32.6512" stroke="#BABABA" stroke-linecap="round" stroke-linejoin="round"/>
<path d="M79.4512 34.94C71.0812 34.94 62.5612 34.6 54.5912 32.38C46.7712 30.21 39.5912 26 33.1912 21.13C29.0012 17.96 25.1912 15.43 19.7512 15.81C14.4293 16.098 9.34 18.0853 5.23121 21.48C-1.68879 27.54 -0.648793 38.77 2.12121 46.63C6.28121 58.5 18.9412 66.77 29.7012 72.12C42.1312 78.33 55.7912 81.94 69.4812 84.01C81.4812 85.84 96.9012 87.16 107.301 79.33C116.851 72.12 119.471 55.68 117.131 44.58C116.563 41.3009 114.817 38.3421 112.221 36.26C105.511 31.35 95.5012 34.63 87.9612 34.79C85.1612 34.85 82.3112 34.92 79.4512 34.94Z" fill="#F2F2F2"/>
<path d="M65.9112 1.96C66.4525 1.96 66.8912 1.52124 66.8912 0.98C66.8912 0.43876 66.4525 0 65.9112 0C65.37 0 64.9312 0.43876 64.9312 0.98C64.9312 1.52124 65.37 1.96 65.9112 1.96Z" fill="#CFCFCF"/>
<path d="M14.9912 78.27V82.57" stroke="#BABABA" stroke-linecap="round" stroke-linejoin="round"/>
<path d="M12.8412 80.42H17.1412" stroke="#BABABA" stroke-linecap="round" stroke-linejoin="round"/>
<path d="M59.3712 103.47C79.6456 103.47 96.0812 102.445 96.0812 101.18C96.0812 99.9153 79.6456 98.89 59.3712 98.89C39.0968 98.89 22.6612 99.9153 22.6612 101.18C22.6612 102.445 39.0968 103.47 59.3712 103.47Z" fill="#F2F2F2"/>
<path d="M88.8812 76.65H25.4712C25.0469 76.6497 24.6276 76.5572 24.2425 76.379C23.8574 76.2007 23.5156 75.9409 23.2408 75.6176C22.966 75.2942 22.7646 74.9151 22.6508 74.5063C22.5369 74.0975 22.5131 73.6688 22.5812 73.25L30.6912 24.07C30.8008 23.3855 31.1511 22.7626 31.6791 22.3135C32.2071 21.8643 32.878 21.6184 33.5712 21.62H96.9812C97.4053 21.62 97.8242 21.7124 98.2089 21.8908C98.5937 22.0691 98.9349 22.3291 99.209 22.6526C99.4831 22.9762 99.6834 23.3556 99.7961 23.7644C99.9087 24.1732 99.9309 24.6017 99.8612 25.02L91.7912 74.2C91.6789 74.8887 91.3237 75.5144 90.7899 75.9639C90.2561 76.4133 89.579 76.6567 88.8812 76.65Z" fill="#D2D2D2"/>
<path d="M89.6625 20.3338L52.0237 3.52873C50.9142 3.03337 49.6133 3.5312 49.1179 4.64067L37.1888 31.3585C36.6934 32.468 37.1913 33.769 38.3007 34.2643L75.9395 51.0694C77.049 51.5648 78.3499 51.067 78.8453 49.9575L90.7744 23.2396C91.2698 22.1302 90.7719 20.8292 89.6625 20.3338Z" fill="white" stroke="#BABABA" stroke-linecap="round" stroke-linejoin="round"/>
<path d="M71.9675 28.3047C70.9768 29.6949 69.5359 30.6997 67.889 31.1491C66.2422 31.5984 64.4906 31.4645 62.9312 30.7701C61.3717 30.0757 60.1003 28.8635 59.3324 27.3389C58.5644 25.8143 58.3472 24.0711 58.7175 22.4047" stroke="#BABABA" stroke-width="0.68" stroke-linecap="round" stroke-linejoin="round"/>
<path d="M75.5412 24C76.1101 24 76.5712 23.5388 76.5712 22.97C76.5712 22.4011 76.1101 21.94 75.5412 21.94C74.9723 21.94 74.5112 22.4011 74.5112 22.97C74.5112 23.5388 74.9723 24 75.5412 24Z" fill="#BABABA"/>
<path d="M60.6212 17.34C61.1901 17.34 61.6512 16.8789 61.6512 16.31C61.6512 15.7411 61.1901 15.28 60.6212 15.28C60.0524 15.28 59.5912 15.7411 59.5912 16.31C59.5912 16.8789 60.0524 17.34 60.6212 17.34Z" fill="#BABABA"/>
<path d="M88.6012 76.63H24.8812C24.1058 76.6273 23.3632 76.3175 22.8158 75.7683C22.2685 75.2191 21.9612 74.4753 21.9612 73.7V28.77C21.9519 28.3802 22.0205 27.9925 22.1629 27.6295C22.3053 27.2666 22.5188 26.9357 22.7907 26.6563C23.0627 26.3769 23.3877 26.1546 23.7466 26.0024C24.1056 25.8502 24.4913 25.7712 24.8812 25.77H48.0912C48.6298 25.772 49.1574 25.9223 49.616 26.2046C50.0747 26.4869 50.4467 26.8901 50.6912 27.37L54.0012 33.85C54.2448 34.3306 54.6166 34.7344 55.0754 35.0168C55.5343 35.2992 56.0624 35.4491 56.6012 35.45H88.6012C89.3756 35.45 90.1183 35.7576 90.6659 36.3052C91.2136 36.8528 91.5212 37.5956 91.5212 38.37V73.7C91.5212 74.4753 91.2139 75.2191 90.6666 75.7683C90.1192 76.3175 89.3765 76.6273 88.6012 76.63Z" fill="white" stroke="#BABABA" stroke-linecap="round" stroke-linejoin="round"/>
<path d="M106.331 0.97998V5.28998" stroke="#BABABA" stroke-linecap="round" stroke-linejoin="round"/>
<path d="M104.171 3.13998H108.481" stroke="#BABABA" stroke-linecap="round" stroke-linejoin="round"/>
<rect x="56" y="55" width="5" height="12" rx="1" fill="#D9D9D9"/>
<path d="M57.634 46.5C58.0189 45.8333 58.9811 45.8333 59.366 46.5L64.9952 56.25C65.3801 56.9167 64.899 57.75 64.1292 57.75H52.8708C52.101 57.75 51.6199 56.9167 52.0048 56.25L57.634 46.5Z" fill="#D9D9D9"/>
</svg>
