<svg width="118" height="114" viewBox="0 0 118 114" fill="none" xmlns="http://www.w3.org/2000/svg">
<path d="M79.4562 45.08C71.0762 45.08 62.5662 44.74 54.5962 42.52C46.6262 40.3 39.6662 36.08 33.1962 31.25C28.9962 28.08 25.1962 25.56 19.7462 25.94C14.4259 26.2217 9.33793 28.2099 5.23621 31.61C-1.69379 37.67 -0.643785 48.87 2.11621 56.76C6.27621 68.63 18.9462 76.87 29.6662 82.25C42.0962 88.46 55.7462 92.06 69.4462 94.14C81.4462 95.96 96.8562 97.29 107.256 89.45C116.816 82.25 119.436 65.81 117.096 54.7C116.522 51.4207 114.773 48.4628 112.176 46.38C105.466 41.47 95.4562 44.75 87.9162 44.92C85.1562 44.98 82.3162 45.08 79.4562 45.08Z" fill="#272933"/>
<path d="M58.9662 113.59C79.2406 113.59 95.6762 112.565 95.6762 111.3C95.6762 110.035 79.2406 109.01 58.9662 109.01C38.6918 109.01 22.2562 110.035 22.2562 111.3C22.2562 112.565 38.6918 113.59 58.9662 113.59Z" fill="#272933"/>
<path d="M104.786 13.87C105.327 13.87 105.766 13.4312 105.766 12.89C105.766 12.3488 105.327 11.91 104.786 11.91C104.245 11.91 103.806 12.3488 103.806 12.89C103.806 13.4312 104.245 13.87 104.786 13.87Z" fill="#4A5059"/>
<path d="M39.5962 5.65998C40.1375 5.65998 40.5762 5.22122 40.5762 4.67998C40.5762 4.13874 40.1375 3.69998 39.5962 3.69998C39.055 3.69998 38.6162 4.13874 38.6162 4.67998C38.6162 5.22122 39.055 5.65998 39.5962 5.65998Z" fill="#4A5059"/>
<path d="M51.4462 98.97C51.9874 98.97 52.4262 98.5312 52.4262 97.99C52.4262 97.4487 51.9874 97.01 51.4462 97.01C50.9049 97.01 50.4662 97.4487 50.4662 97.99C50.4662 98.5312 50.9049 98.97 51.4462 98.97Z" fill="#4A5059"/>
<path d="M77.5962 1V5.3" stroke="#4A5059" stroke-linecap="round" stroke-linejoin="round"/>
<path d="M75.4462 3.14999H79.7562" stroke="#4A5059" stroke-linecap="round" stroke-linejoin="round"/>
<path d="M7.53619 19.1V23.4" stroke="#4A5059" stroke-linecap="round" stroke-linejoin="round"/>
<path d="M5.3862 21.25H9.6862" stroke="#4A5059" stroke-linecap="round" stroke-linejoin="round"/>
<path d="M10.7762 79.01V83.32" stroke="#4A5059" stroke-linecap="round" stroke-linejoin="round"/>
<path d="M8.62619 81.16H12.9362" stroke="#4A5059" stroke-linecap="round" stroke-linejoin="round"/>
<path d="M99.6262 34.92V39.22" stroke="#4A5059" stroke-linecap="round" stroke-linejoin="round"/>
<path d="M97.4762 37.07H101.786" stroke="#4A5059" stroke-linecap="round" stroke-linejoin="round"/>
<path d="M69.6598 9.83878L19.4668 16.4298C16.2136 16.857 13.9226 19.8405 14.3498 23.0938L22.0003 81.3553C22.4275 84.6085 25.4111 86.8995 28.6643 86.4723L78.8573 79.8813C82.1105 79.4541 84.4015 76.4705 83.9743 73.2173L76.3238 14.9558C75.8966 11.7025 72.913 9.41159 69.6598 9.83878Z" fill="#4A5059"/>
<path d="M84.2862 18.38H33.5862C30.3001 18.38 27.6362 21.0439 27.6362 24.33V83.18C27.6362 86.4661 30.3001 89.13 33.5862 89.13H84.2862C87.5723 89.13 90.2362 86.4661 90.2362 83.18V24.33C90.2362 21.0439 87.5723 18.38 84.2862 18.38Z" fill="#2D333E" stroke="#4A5059" stroke-miterlimit="10"/>
<path d="M35.1962 64.94L45.3462 48.41C45.4439 48.1677 45.6117 47.9602 45.8282 47.814C46.0447 47.6678 46.3 47.5898 46.5612 47.5898C46.8224 47.5898 47.0777 47.6678 47.2942 47.814C47.5107 47.9602 47.6785 48.1677 47.7762 48.41L53.5262 57.78C53.6239 58.0223 53.7917 58.2298 54.0082 58.376C54.2247 58.5221 54.48 58.6002 54.7412 58.6002C55.0024 58.6002 55.2577 58.5221 55.4742 58.376C55.6907 58.2298 55.8585 58.0223 55.9562 57.78L65.7962 41.78C65.8939 41.5377 66.0617 41.3302 66.2782 41.184C66.4947 41.0378 66.75 40.9597 67.0112 40.9597C67.2724 40.9597 67.5277 41.0378 67.7442 41.184C67.9607 41.3302 68.1285 41.5377 68.2262 41.78L82.6662 65.28L35.1962 64.94Z" fill="#2D333E" stroke="#4A5059" stroke-miterlimit="10"/>
<path d="M55.4162 46.19C57.178 46.19 58.6062 44.7618 58.6062 43C58.6062 41.2382 57.178 39.81 55.4162 39.81C53.6544 39.81 52.2262 41.2382 52.2262 43C52.2262 44.7618 53.6544 46.19 55.4162 46.19Z" fill="#2D333E" stroke="#4A5059" stroke-miterlimit="10"/>
</svg>
