<svg width="118" height="109" viewBox="0 0 118 109" fill="none" xmlns="http://www.w3.org/2000/svg">
<path d="M79.4545 40.42C71.0745 40.42 62.5645 40.08 54.5945 37.86C46.7745 35.69 39.5945 31.48 33.1945 26.61C28.9945 23.44 25.1945 20.92 19.7445 21.3C14.4236 21.5788 9.33476 23.5674 5.2345 26.97C-1.6955 33.03 -0.645497 44.23 2.1245 52.11C6.2845 63.99 18.9445 72.23 29.7045 77.6C42.1345 83.81 55.7845 87.42 69.4845 89.5C81.4845 91.32 96.9045 92.64 107.295 84.81C116.855 77.61 119.474 61.16 117.134 50.06C116.568 46.7781 114.817 43.8179 112.215 41.74C105.505 36.83 95.5045 40.11 87.9645 40.27C85.1645 40.34 82.3145 40.4 79.4545 40.42Z" fill="#272933"/>
<path d="M58.9645 108.95C79.2389 108.95 95.6745 107.925 95.6745 106.66C95.6745 105.395 79.2389 104.37 58.9645 104.37C38.6901 104.37 22.2545 105.395 22.2545 106.66C22.2545 107.925 38.6901 108.95 58.9645 108.95Z" fill="#272933"/>
<path d="M111.444 26.29C111.986 26.29 112.424 25.8512 112.424 25.31C112.424 24.7687 111.986 24.33 111.444 24.33C110.903 24.33 110.464 24.7687 110.464 25.31C110.464 25.8512 110.903 26.29 111.444 26.29Z" fill="#4A5059"/>
<path d="M69.1845 19.31C69.7257 19.31 70.1645 18.8712 70.1645 18.33C70.1645 17.7887 69.7257 17.35 69.1845 17.35C68.6432 17.35 68.2045 17.7887 68.2045 18.33C68.2045 18.8712 68.6432 19.31 69.1845 19.31Z" fill="#4A5059"/>
<path d="M30.0345 82.85V87.16" stroke="#4A5059" stroke-linecap="round" stroke-linejoin="round"/>
<path d="M27.8845 85H32.1845" stroke="#4A5059" stroke-linecap="round" stroke-linejoin="round"/>
<path d="M14.2645 1V5.31" stroke="#4A5059" stroke-linecap="round" stroke-linejoin="round"/>
<path d="M12.1145 3.15002H16.4145" stroke="#4A5059" stroke-linecap="round" stroke-linejoin="round"/>
<path d="M92.2145 23.16V27.46" stroke="#4A5059" stroke-linecap="round" stroke-linejoin="round"/>
<path d="M90.0646 25.3101H94.3746" stroke="#4A5059" stroke-linecap="round" stroke-linejoin="round"/>
<path d="M53.2945 80.73C57.9142 87.1887 64.9062 91.5523 72.7378 92.8644C80.5695 94.1766 88.6019 92.3302 95.0745 87.73C95.8763 87.1648 96.6474 86.5572 97.3845 85.91L109.314 89.5L104.744 76.14C107.026 71.3647 108.003 66.0709 107.578 60.7958C107.152 55.5207 105.338 50.4521 102.321 46.1043C99.3039 41.7565 95.1902 38.2842 90.3975 36.0398C85.6047 33.7954 80.3036 32.8588 75.0319 33.325C69.7603 33.7912 64.7058 35.6436 60.3813 38.6943C56.0569 41.745 52.6164 45.8853 50.409 50.6952C48.2016 55.5051 47.3058 60.8133 47.8126 66.0811C48.3193 71.349 50.2106 76.3891 53.2945 80.69V80.73Z" fill="#2D333E" stroke="#4A5059" stroke-miterlimit="10"/>
<path d="M88.0645 65.31C89.158 65.31 90.0445 64.4235 90.0445 63.33C90.0445 62.2365 89.158 61.35 88.0645 61.35C86.971 61.35 86.0845 62.2365 86.0845 63.33C86.0845 64.4235 86.971 65.31 88.0645 65.31Z" fill="#4A5059"/>
<path d="M78.5145 65.31C79.6081 65.31 80.4946 64.4235 80.4946 63.33C80.4946 62.2365 79.6081 61.35 78.5145 61.35C77.421 61.35 76.5345 62.2365 76.5345 63.33C76.5345 64.4235 77.421 65.31 78.5145 65.31Z" fill="#4A5059"/>
<path d="M68.9745 65.31C70.068 65.31 70.9545 64.4235 70.9545 63.33C70.9545 62.2365 70.068 61.35 68.9745 61.35C67.881 61.35 66.9945 62.2365 66.9945 63.33C66.9945 64.4235 67.881 65.31 68.9745 65.31Z" fill="#4A5059"/>
<path d="M63.0746 60.33C58.4548 66.7886 51.4629 71.1523 43.6312 72.4644C35.7996 73.7766 27.7672 71.9302 21.2946 67.33C20.4946 66.75 19.7146 66.15 18.9846 65.51L7.06458 69.13L11.6246 55.77C9.34444 50.9942 8.3682 45.7003 8.79493 40.4254C9.22165 35.1505 11.0361 30.0823 14.0543 25.7352C17.0724 21.388 21.1868 17.9167 25.9799 15.6733C30.773 13.4299 36.0743 12.4943 41.3458 12.9615C46.6172 13.4287 51.6713 15.2821 55.9951 18.3335C60.319 21.3849 63.7587 25.5258 65.9652 30.336C68.1717 35.1462 69.0666 40.4545 68.5589 45.7222C68.0512 50.99 66.1591 56.0297 63.0746 60.33Z" fill="#2D333E" stroke="#4A5059" stroke-miterlimit="10"/>
<path d="M30.1545 48.73C31.0419 47.2312 32.3011 45.9867 33.8103 45.1171C35.3195 44.2474 37.0277 43.782 38.7694 43.7659C40.5112 43.7498 42.2276 44.1836 43.7526 45.0252C45.2777 45.8668 46.5596 47.0878 47.4745 48.57" stroke="#4A5059" stroke-linecap="round" stroke-linejoin="round"/>
<path d="M50.0245 39.95C50.8032 39.95 51.4345 39.3187 51.4345 38.54C51.4345 37.7613 50.8032 37.13 50.0245 37.13C49.2458 37.13 48.6145 37.7613 48.6145 38.54C48.6145 39.3187 49.2458 39.95 50.0245 39.95Z" fill="#4A5059"/>
<path d="M27.6945 39.95C28.4733 39.95 29.1045 39.3187 29.1045 38.54C29.1045 37.7613 28.4733 37.13 27.6945 37.13C26.9158 37.13 26.2845 37.7613 26.2845 38.54C26.2845 39.3187 26.9158 39.95 27.6945 39.95Z" fill="#4A5059"/>
</svg>
