<svg width="118" height="114" viewBox="0 0 118 114" fill="none" xmlns="http://www.w3.org/2000/svg">
<path d="M79.4512 45.06C71.0812 45.06 62.5612 44.72 54.5912 42.5C46.7712 40.33 39.5912 36.12 33.1912 31.25C29.0012 28.08 25.1912 25.56 19.7512 25.94C14.4282 26.2231 9.33746 28.211 5.23121 31.61C-1.68879 37.67 -0.648793 48.89 2.12121 56.76C6.28121 68.63 18.9412 76.89 29.7012 82.25C42.1312 88.46 55.7912 92.06 69.4812 94.14C81.4812 95.96 96.9012 97.29 107.301 89.45C116.851 82.25 119.471 65.81 117.131 54.71C116.564 51.4279 114.818 48.4658 112.221 46.38C105.511 41.48 95.5012 44.75 87.9612 44.92C85.1612 44.98 82.3112 45.04 79.4512 45.06Z" fill="#F2F2F2"/>
<path d="M58.9712 113.59C79.2456 113.59 95.6812 112.565 95.6812 111.3C95.6812 110.035 79.2456 109.01 58.9712 109.01C38.6968 109.01 22.2612 110.035 22.2612 111.3C22.2612 112.565 38.6968 113.59 58.9712 113.59Z" fill="#F2F2F2"/>
<path d="M104.781 13.87C105.322 13.87 105.761 13.4312 105.761 12.89C105.761 12.3488 105.322 11.91 104.781 11.91C104.24 11.91 103.801 12.3488 103.801 12.89C103.801 13.4312 104.24 13.87 104.781 13.87Z" fill="#CFCFCF"/>
<path d="M39.5912 5.66C40.1324 5.66 40.5712 5.22124 40.5712 4.68C40.5712 4.13876 40.1324 3.7 39.5912 3.7C39.05 3.7 38.6112 4.13876 38.6112 4.68C38.6112 5.22124 39.05 5.66 39.5912 5.66Z" fill="#CFCFCF"/>
<path d="M51.4412 98.97C51.9825 98.97 52.4212 98.5312 52.4212 97.99C52.4212 97.4488 51.9825 97.01 51.4412 97.01C50.9 97.01 50.4612 97.4488 50.4612 97.99C50.4612 98.5312 50.9 98.97 51.4412 98.97Z" fill="#CFCFCF"/>
<path d="M77.6012 1V5.3" stroke="#BABABA" stroke-linecap="round" stroke-linejoin="round"/>
<path d="M75.4512 3.14999H79.7512" stroke="#BABABA" stroke-linecap="round" stroke-linejoin="round"/>
<path d="M7.5412 19.1V23.4" stroke="#BABABA" stroke-linecap="round" stroke-linejoin="round"/>
<path d="M5.38121 21.25H9.69121" stroke="#BABABA" stroke-linecap="round" stroke-linejoin="round"/>
<path d="M10.7812 79.01V83.32" stroke="#BABABA" stroke-linecap="round" stroke-linejoin="round"/>
<path d="M8.62122 81.16H12.9312" stroke="#BABABA" stroke-linecap="round" stroke-linejoin="round"/>
<path d="M99.6312 34.92V39.22" stroke="#BABABA" stroke-linecap="round" stroke-linejoin="round"/>
<path d="M97.4812 37.07H101.781" stroke="#BABABA" stroke-linecap="round" stroke-linejoin="round"/>
<path d="M69.6607 9.83249L19.4677 16.4235C16.2145 16.8507 13.9235 19.8343 14.3507 23.0875L22.0012 81.349C22.4284 84.6022 25.412 86.8932 28.6652 86.466L78.8582 79.875C82.1114 79.4478 84.4024 76.4642 83.9752 73.211L76.3247 14.9495C75.8975 11.6963 72.9139 9.4053 69.6607 9.83249Z" fill="#D2D2D2"/>
<path d="M84.2812 18.38H33.5812C30.2951 18.38 27.6312 21.0439 27.6312 24.33V83.18C27.6312 86.4661 30.2951 89.13 33.5812 89.13H84.2812C87.5673 89.13 90.2312 86.4661 90.2312 83.18V24.33C90.2312 21.0439 87.5673 18.38 84.2812 18.38Z" fill="white" stroke="#BABABA" stroke-linecap="round" stroke-linejoin="round"/>
<path d="M35.2012 64.94L45.3412 48.41C45.441 48.1685 45.6101 47.9621 45.8273 47.8168C46.0445 47.6715 46.2999 47.594 46.5612 47.594C46.8225 47.594 47.0779 47.6715 47.2951 47.8168C47.5123 47.9621 47.6814 48.1685 47.7812 48.41L53.5312 57.78C53.6289 58.0223 53.7967 58.2298 54.0132 58.376C54.2297 58.5221 54.485 58.6002 54.7462 58.6002C55.0074 58.6002 55.2627 58.5221 55.4792 58.376C55.6957 58.2298 55.8635 58.0223 55.9612 57.78L65.8012 41.78C65.8989 41.5377 66.0667 41.3302 66.2832 41.184C66.4997 41.0379 66.755 40.9598 67.0162 40.9598C67.2774 40.9598 67.5327 41.0379 67.7492 41.184C67.9657 41.3302 68.1335 41.5377 68.2312 41.78L82.6712 65.31L35.2012 64.94Z" fill="white" stroke="#BABABA" stroke-linecap="round" stroke-linejoin="round"/>
<path d="M55.4212 46.19C57.183 46.19 58.6112 44.7618 58.6112 43C58.6112 41.2382 57.183 39.81 55.4212 39.81C53.6594 39.81 52.2312 41.2382 52.2312 43C52.2312 44.7618 53.6594 46.19 55.4212 46.19Z" fill="white" stroke="#BABABA" stroke-linecap="round" stroke-linejoin="round"/>
</svg>
