<svg width="118" height="104" viewBox="0 0 118 104" fill="none" xmlns="http://www.w3.org/2000/svg">
<path d="M15.9012 75.89C16.4424 75.89 16.8812 75.4513 16.8812 74.91C16.8812 74.3688 16.4424 73.93 15.9012 73.93C15.36 73.93 14.9212 74.3688 14.9212 74.91C14.9212 75.4513 15.36 75.89 15.9012 75.89Z" fill="#CFCFCF"/>
<path d="M79.4512 34.93C71.0812 34.93 62.5612 34.59 54.5912 32.37C46.7712 30.2 39.5912 25.99 33.1912 21.12C29.0012 17.95 25.1912 15.42 19.7512 15.8C14.4293 16.088 9.34 18.0753 5.23121 21.47C-1.68879 27.53 -0.648793 38.76 2.12121 46.62C6.28121 58.49 18.9412 66.76 29.7012 72.11C42.1312 78.32 55.7912 81.93 69.4812 84C81.4812 85.83 96.9012 87.15 107.301 79.32C116.851 72.11 119.471 55.67 117.131 44.57C116.563 41.2909 114.817 38.3321 112.221 36.25C105.511 31.34 95.5012 34.62 87.9612 34.78C85.1612 34.84 82.3112 34.91 79.4512 34.93Z" fill="#F2F2F2"/>
<path d="M62.0212 85.24C68.2565 85.24 73.3112 80.1853 73.3112 73.95C73.3112 67.7147 68.2565 62.66 62.0212 62.66C55.7859 62.66 50.7312 67.7147 50.7312 73.95C50.7312 80.1853 55.7859 85.24 62.0212 85.24Z" fill="#D2D2D2"/>
<path d="M50.3548 3.46615C50.979 3.32697 51.6246 3.31209 52.2545 3.42238C52.8845 3.53266 53.4865 3.76595 54.0263 4.10891C54.5661 4.45188 55.0331 4.8978 55.4006 5.42123C55.768 5.94466 56.0288 6.53535 56.168 7.15955L57.9721 15.2509L48.4461 17.3749L46.6419 9.28365C46.5024 8.65779 46.4878 8.01054 46.599 7.37903C46.7102 6.74753 46.945 6.14421 47.29 5.60369C47.635 5.06317 48.0833 4.5961 48.6093 4.22929C49.1352 3.86247 49.7284 3.60313 50.3548 3.46615Z" fill="white" stroke="#BABABA" stroke-linecap="round" stroke-linejoin="round"/>
<path d="M94.8612 66.94L36.9712 79.84C36.6116 79.9207 36.2372 79.9062 35.8849 79.7981C35.5326 79.69 35.2146 79.4919 34.9622 79.2233C34.7099 78.9548 34.5318 78.6251 34.4457 78.2668C34.3596 77.9085 34.3684 77.5339 34.4712 77.18L34.7112 76.35C36.7112 69.26 38.4512 61.45 36.8512 54.25L33.4312 38.89C30.5512 25.98 38.2912 12.83 51.1312 9.66C54.2622 8.88273 57.517 8.73959 60.7042 9.239C63.8913 9.73841 66.9464 10.8703 69.6895 12.568C72.4327 14.2657 74.8086 16.495 76.6774 19.1246C78.5462 21.7542 79.8701 24.7311 80.5712 27.88L84.1012 43.76C85.7112 50.96 90.5712 57.32 95.4312 62.86L96.0012 63.51C96.232 63.7884 96.3881 64.1209 96.4549 64.4762C96.5216 64.8316 96.4968 65.1981 96.3827 65.5412C96.2687 65.8844 96.0692 66.1928 95.803 66.4375C95.5368 66.6822 95.2127 66.8552 94.8612 66.94Z" fill="white" stroke="#BABABA" stroke-linecap="round" stroke-linejoin="round"/>
<path d="M70.5 46.7509C70.5158 49.0865 69.7311 51.3572 68.2765 53.1847C66.8218 55.0122 64.7851 56.2863 62.5054 56.7948C60.2257 57.3034 57.8406 57.0157 55.7472 55.9797C53.6537 54.9437 51.9784 53.2218 51 51.1009" stroke="#BABABA" stroke-linecap="round" stroke-linejoin="round"/>
<path d="M69.9012 40.81C70.6854 40.81 71.3212 40.1742 71.3212 39.39C71.3212 38.6058 70.6854 37.97 69.9012 37.97C69.117 37.97 68.4812 38.6058 68.4812 39.39C68.4812 40.1742 69.117 40.81 69.9012 40.81Z" fill="#BABABA"/>
<path d="M47.8812 45.72C48.6655 45.72 49.3012 45.0842 49.3012 44.3C49.3012 43.5158 48.6655 42.88 47.8812 42.88C47.097 42.88 46.4612 43.5158 46.4612 44.3C46.4612 45.0842 47.097 45.72 47.8812 45.72Z" fill="#BABABA"/>
<path d="M74.3612 1.96C74.9025 1.96 75.3412 1.52124 75.3412 0.98C75.3412 0.43876 74.9025 0 74.3612 0C73.82 0 73.3812 0.43876 73.3812 0.98C73.3812 1.52124 73.82 1.96 74.3612 1.96Z" fill="#CFCFCF"/>
<path d="M15.9012 75.89C16.4424 75.89 16.8812 75.4513 16.8812 74.91C16.8812 74.3688 16.4424 73.93 15.9012 73.93C15.36 73.93 14.9212 74.3688 14.9212 74.91C14.9212 75.4513 15.36 75.89 15.9012 75.89Z" fill="#CFCFCF"/>
<path d="M101.441 24.65V28.95" stroke="#BABABA" stroke-linecap="round" stroke-linejoin="round"/>
<path d="M99.2912 26.8H103.591" stroke="#BABABA" stroke-linecap="round" stroke-linejoin="round"/>
<path d="M103.401 89.39V93.69" stroke="#BABABA" stroke-linecap="round" stroke-linejoin="round"/>
<path d="M101.251 91.54H105.551" stroke="#BABABA" stroke-linecap="round" stroke-linejoin="round"/>
<path d="M28.2212 8.35001V12.65" stroke="#BABABA" stroke-linecap="round" stroke-linejoin="round"/>
<path d="M26.0712 10.5H30.3712" stroke="#BABABA" stroke-linecap="round" stroke-linejoin="round"/>
<path d="M59.3712 103.46C79.6456 103.46 96.0812 102.435 96.0812 101.17C96.0812 99.9053 79.6456 98.88 59.3712 98.88C39.0968 98.88 22.6612 99.9053 22.6612 101.17C22.6612 102.435 39.0968 103.46 59.3712 103.46Z" fill="#F2F2F2"/>
<path d="M94.4412 22.21C94.4386 25.2512 93.2293 28.1671 91.0788 30.3176C88.9283 32.4681 86.0124 33.6774 82.9712 33.68C82.5971 33.68 82.2232 33.6599 81.8512 33.62L78.4512 39.17L77.3912 32.22C75.6247 31.2364 74.1496 29.8033 73.1154 28.066C72.0812 26.3287 71.5246 24.3489 71.5019 22.3271C71.4793 20.3054 71.9915 18.3136 72.9866 16.5536C73.9817 14.7936 75.4244 13.3279 77.1684 12.305C78.9124 11.2821 80.8958 10.7384 82.9176 10.7289C84.9395 10.7195 86.9279 11.2447 88.6814 12.2512C90.4349 13.2578 91.8912 14.7099 92.9027 16.4606C93.9142 18.2112 94.4449 20.1982 94.4412 22.22V22.21Z" fill="white" stroke="#BABABA" stroke-linecap="round" stroke-linejoin="round"/>
<path d="M78.0712 23.37C78.7118 23.37 79.2312 22.8507 79.2312 22.21C79.2312 21.5694 78.7118 21.05 78.0712 21.05C77.4305 21.05 76.9112 21.5694 76.9112 22.21C76.9112 22.8507 77.4305 23.37 78.0712 23.37Z" fill="#D2D2D2" stroke="#D2D2D2" stroke-miterlimit="10"/>
<path d="M82.9712 23.37C83.6119 23.37 84.1312 22.8507 84.1312 22.21C84.1312 21.5694 83.6119 21.05 82.9712 21.05C82.3306 21.05 81.8112 21.5694 81.8112 22.21C81.8112 22.8507 82.3306 23.37 82.9712 23.37Z" fill="#D2D2D2" stroke="#D2D2D2" stroke-miterlimit="10"/>
<path d="M87.8712 23.37C88.5118 23.37 89.0312 22.8507 89.0312 22.21C89.0312 21.5694 88.5118 21.05 87.8712 21.05C87.2305 21.05 86.7112 21.5694 86.7112 22.21C86.7112 22.8507 87.2305 23.37 87.8712 23.37Z" fill="#D2D2D2" stroke="#D2D2D2" stroke-miterlimit="10"/>
</svg>
