<svg width="118" height="109" viewBox="0 0 118 109" fill="none" xmlns="http://www.w3.org/2000/svg">
<path d="M79.4562 40.45C71.0762 40.45 62.5662 40.11 54.5962 37.89C46.7762 35.71 39.5962 31.51 33.1962 26.64C28.9962 23.46 25.1962 20.94 19.7462 21.32C14.4305 21.5981 9.34433 23.575 5.23621 26.96C-1.69379 33.02 -0.643785 44.23 2.11621 52.11C6.28621 63.98 18.9362 72.23 29.7062 77.6C42.1362 83.81 55.7862 87.45 69.4862 89.45C81.4862 91.28 96.8962 92.6 107.296 84.76C116.856 77.56 119.476 61.12 117.136 50.02C116.568 46.7388 114.818 43.7792 112.216 41.7C105.506 36.79 95.4962 40.07 87.9562 40.23C85.1562 40.33 82.3162 40.45 79.4562 40.45Z" fill="#F2F2F2"/>
<path d="M58.9662 108.95C79.2406 108.95 95.6762 107.925 95.6762 106.66C95.6762 105.395 79.2406 104.37 58.9662 104.37C38.6919 104.37 22.2562 105.395 22.2562 106.66C22.2562 107.925 38.6919 108.95 58.9662 108.95Z" fill="#F2F2F2"/>
<path d="M111.436 26.29C111.977 26.29 112.416 25.8512 112.416 25.31C112.416 24.7688 111.977 24.33 111.436 24.33C110.895 24.33 110.456 24.7688 110.456 25.31C110.456 25.8512 110.895 26.29 111.436 26.29Z" fill="#CFCFCF"/>
<path d="M69.1762 19.31C69.7175 19.31 70.1562 18.8712 70.1562 18.33C70.1562 17.7888 69.7175 17.35 69.1762 17.35C68.635 17.35 68.1962 17.7888 68.1962 18.33C68.1962 18.8712 68.635 19.31 69.1762 19.31Z" fill="#CFCFCF"/>
<path d="M30.0362 82.85V87.15" stroke="#BABABA" stroke-linecap="round" stroke-linejoin="round"/>
<path d="M27.8862 85H32.1862" stroke="#BABABA" stroke-linecap="round" stroke-linejoin="round"/>
<path d="M14.2662 1V5.3" stroke="#BABABA" stroke-linecap="round" stroke-linejoin="round"/>
<path d="M12.1062 3.14999H16.4162" stroke="#BABABA" stroke-linecap="round" stroke-linejoin="round"/>
<path d="M92.2162 23.15V27.46" stroke="#BABABA" stroke-linecap="round" stroke-linejoin="round"/>
<path d="M90.0662 25.31H94.3662" stroke="#BABABA" stroke-linecap="round" stroke-linejoin="round"/>
<path d="M53.2962 80.73C57.9159 87.1887 64.9079 91.5523 72.7396 92.8645C80.5712 94.1766 88.6036 92.3302 95.0762 87.73C95.8761 87.1623 96.6471 86.5549 97.3862 85.91L109.316 89.52L104.746 76.17C107.027 71.3947 108.005 66.1009 107.579 60.8258C107.154 55.5508 105.34 50.4822 102.323 46.1343C99.3056 41.7865 95.1919 38.3142 90.3992 36.0698C85.6065 33.8255 80.3053 32.8888 75.0337 33.355C69.762 33.8212 64.7075 35.6737 60.3831 38.7243C56.0586 41.775 52.6181 45.9153 50.4107 50.7252C48.2033 55.5351 47.3075 60.8433 47.8143 66.1112C48.321 71.3791 50.2123 76.4192 53.2962 80.72V80.73Z" fill="white" stroke="#BABABA" stroke-linecap="round" stroke-linejoin="round"/>
<path d="M88.0662 65.31C89.1598 65.31 90.0462 64.4235 90.0462 63.33C90.0462 62.2365 89.1598 61.35 88.0662 61.35C86.9727 61.35 86.0862 62.2365 86.0862 63.33C86.0862 64.4235 86.9727 65.31 88.0662 65.31Z" fill="#BABABA"/>
<path d="M78.5162 65.31C79.6097 65.31 80.4962 64.4235 80.4962 63.33C80.4962 62.2365 79.6097 61.35 78.5162 61.35C77.4227 61.35 76.5362 62.2365 76.5362 63.33C76.5362 64.4235 77.4227 65.31 78.5162 65.31Z" fill="#BABABA"/>
<path d="M68.9762 65.31C70.0697 65.31 70.9562 64.4235 70.9562 63.33C70.9562 62.2365 70.0697 61.35 68.9762 61.35C67.8827 61.35 66.9962 62.2365 66.9962 63.33C66.9962 64.4235 67.8827 65.31 68.9762 65.31Z" fill="#BABABA"/>
<path d="M63.0762 60.32C58.4565 66.7787 51.4645 71.1423 43.6329 72.4545C35.8012 73.7666 27.7688 71.9202 21.2962 67.32C20.4939 66.7555 19.7228 66.1479 18.9862 65.5L7.05621 69.13L11.6262 55.77C9.34499 50.9947 8.36759 45.7009 8.79318 40.4258C9.21878 35.1508 11.0322 30.0821 14.0495 25.7343C17.0668 21.3865 21.1805 17.9142 25.9732 15.6698C30.766 13.4254 36.0671 12.4888 41.3388 12.955C46.6104 13.4212 51.6649 15.2737 55.9894 18.3243C60.3138 21.375 63.7543 25.5153 65.9617 30.3252C68.1692 35.1351 69.0649 40.4433 68.5582 45.7112C68.0514 50.9791 66.1601 56.0192 63.0762 60.32Z" fill="white" stroke="#BABABA" stroke-linecap="round" stroke-linejoin="round"/>
<path d="M30.1562 48.73C31.0435 47.2311 32.3027 45.9867 33.812 45.117C35.3212 44.2474 37.0293 43.782 38.7711 43.7659C40.5128 43.7498 42.2293 44.1835 43.7543 45.0252C45.2793 45.8668 46.5613 47.0878 47.4762 48.57" stroke="#BABABA" stroke-linecap="round" stroke-linejoin="round"/>
<path d="M50.0262 39.94C50.8049 39.94 51.4362 39.3087 51.4362 38.53C51.4362 37.7513 50.8049 37.12 50.0262 37.12C49.2475 37.12 48.6162 37.7513 48.6162 38.53C48.6162 39.3087 49.2475 39.94 50.0262 39.94Z" fill="#BABABA"/>
<path d="M27.6862 39.94C28.465 39.94 29.0962 39.3087 29.0962 38.53C29.0962 37.7513 28.465 37.12 27.6862 37.12C26.9075 37.12 26.2762 37.7513 26.2762 38.53C26.2762 39.3087 26.9075 39.94 27.6862 39.94Z" fill="#BABABA"/>
</svg>
