<svg width="118" height="104" viewBox="0 0 118 104" fill="none" xmlns="http://www.w3.org/2000/svg">
<path d="M58.9712 82.07C59.5125 82.07 59.9512 81.6312 59.9512 81.09C59.9512 80.5487 59.5125 80.11 58.9712 80.11C58.43 80.11 57.9912 80.5487 57.9912 81.09C57.9912 81.6312 58.43 82.07 58.9712 82.07Z" fill="#CFCFCF"/>
<path d="M30.5012 8.28995V12.5899" stroke="#4A5059" stroke-linecap="round" stroke-linejoin="round"/>
<path d="M28.3412 10.44H32.6512" stroke="#4A5059" stroke-linecap="round" stroke-linejoin="round"/>
<path d="M79.4512 35.41C71.0812 35.41 62.5612 35.07 54.5912 32.85C46.7712 30.68 39.5912 26.47 33.1912 21.6C29.0012 18.43 25.1912 15.9 19.7512 16.28C14.4293 16.568 9.34 18.5553 5.23121 21.95C-1.68879 28.01 -0.648793 39.24 2.12121 47.1C6.28121 58.97 18.9412 67.24 29.7012 72.59C42.1312 78.8 55.7912 82.41 69.4812 84.48C81.4812 86.31 96.9012 87.63 107.301 79.8C116.851 72.59 119.471 56.15 117.131 45.05C116.563 41.7708 114.817 38.812 112.221 36.73C105.511 31.82 95.5012 35.1 87.9612 35.26C85.1612 35.32 82.3112 35.39 79.4512 35.41Z" fill="#272933"/>
<path d="M65.9112 2.42997C66.4525 2.42997 66.8912 1.99121 66.8912 1.44997C66.8912 0.908731 66.4525 0.469971 65.9112 0.469971C65.37 0.469971 64.9312 0.908731 64.9312 1.44997C64.9312 1.99121 65.37 2.42997 65.9112 2.42997Z" fill="#CFCFCF"/>
<path d="M14.9912 78.74V83.04" stroke="#4A5059" stroke-linecap="round" stroke-linejoin="round"/>
<path d="M12.8412 80.89H17.1412" stroke="#4A5059" stroke-linecap="round" stroke-linejoin="round"/>
<path d="M59.3712 103.94C79.6456 103.94 96.0812 102.915 96.0812 101.65C96.0812 100.385 79.6456 99.36 59.3712 99.36C39.0968 99.36 22.6612 100.385 22.6612 101.65C22.6612 102.915 39.0968 103.94 59.3712 103.94Z" fill="#272933"/>
<path d="M88.886 76.6199H88.8812H25.4716C25.1196 76.6197 24.7719 76.543 24.4525 76.3952C24.1332 76.2473 23.8497 76.0319 23.6218 75.7637C23.3938 75.4956 23.2269 75.1811 23.1324 74.8421C23.038 74.5032 23.0183 74.1479 23.0747 73.8007C23.0747 73.8005 23.0747 73.8003 23.0747 73.8002L31.1846 24.6213L31.1849 24.619C31.2757 24.0521 31.5658 23.5363 32.0031 23.1643C32.4403 22.7923 32.996 22.5886 33.5701 22.5899H33.5712H96.9812C97.3326 22.59 97.6798 22.6666 97.9987 22.8144C98.3175 22.9622 98.6004 23.1776 98.8275 23.4458C99.0547 23.714 99.2207 24.0284 99.314 24.3672C99.4074 24.706 99.4258 25.0611 99.368 25.4078L99.3678 25.409L91.2978 74.589L91.2977 74.5895C91.2047 75.1603 90.9103 75.6789 90.4679 76.0513C90.0255 76.4238 89.4643 76.6255 88.886 76.6199Z" fill="#2D333E" stroke="#4A5059"/>
<path d="M89.6625 20.8038L52.0237 3.9987C50.9142 3.50334 49.6133 4.00117 49.1179 5.11064L37.1888 31.8285C36.6934 32.938 37.1913 34.2389 38.3007 34.7343L75.9395 51.5394C77.049 52.0348 78.3499 51.5369 78.8453 50.4275L90.7744 23.7096C91.2698 22.6001 90.7719 21.2992 89.6625 20.8038Z" fill="#2D333E" stroke="#4A5059" stroke-linecap="round" stroke-linejoin="round"/>
<path d="M71.9675 28.7747C70.9768 30.1648 69.5359 31.1697 67.889 31.619C66.2422 32.0683 64.4906 31.9345 62.9312 31.2401C61.3717 30.5457 60.1003 29.3335 59.3324 27.8089C58.5644 26.2843 58.3472 24.5411 58.7175 22.8747" stroke="#4A5059" stroke-width="0.68" stroke-linecap="round" stroke-linejoin="round"/>
<path d="M75.5412 24.4699C76.1101 24.4699 76.5712 24.0088 76.5712 23.4399C76.5712 22.8711 76.1101 22.4099 75.5412 22.4099C74.9723 22.4099 74.5112 22.8711 74.5112 23.4399C74.5112 24.0088 74.9723 24.4699 75.5412 24.4699Z" fill="#4A5059"/>
<path d="M60.6212 17.81C61.1901 17.81 61.6512 17.3488 61.6512 16.78C61.6512 16.2111 61.1901 15.75 60.6212 15.75C60.0524 15.75 59.5912 16.2111 59.5912 16.78C59.5912 17.3488 60.0524 17.81 60.6212 17.81Z" fill="#4A5059"/>
<path d="M88.6012 77.1H24.8812C24.1058 77.0973 23.3632 76.7875 22.8158 76.2383C22.2685 75.6891 21.9612 74.9453 21.9612 74.17V29.24C21.9519 28.8502 22.0205 28.4625 22.1629 28.0995C22.3053 27.7366 22.5188 27.4057 22.7907 27.1263C23.0627 26.8469 23.3877 26.6246 23.7466 26.4724C24.1056 26.3202 24.4913 26.2412 24.8812 26.24H48.0912C48.6298 26.2419 49.1574 26.3923 49.616 26.6746C50.0747 26.9568 50.4467 27.3601 50.6912 27.84L54.0012 34.32C54.2448 34.8006 54.6166 35.2044 55.0754 35.4868C55.5343 35.7692 56.0624 35.9191 56.6012 35.92H88.6012C89.3756 35.92 90.1183 36.2276 90.6659 36.7752C91.2136 37.3228 91.5212 38.0655 91.5212 38.84V74.17C91.5212 74.9453 91.2139 75.6891 90.6666 76.2383C90.1192 76.7875 89.3765 77.0973 88.6012 77.1Z" fill="#2D333E" stroke="#4A5059" stroke-linecap="round" stroke-linejoin="round"/>
<path d="M106.331 1.44995V5.75995" stroke="#4A5059" stroke-linecap="round" stroke-linejoin="round"/>
<path d="M104.171 3.60995H108.481" stroke="#4A5059" stroke-linecap="round" stroke-linejoin="round"/>
<rect x="56" y="55.47" width="5" height="12" rx="1" fill="#4A5059"/>
<path d="M57.634 46.97C58.0189 46.3033 58.9811 46.3033 59.366 46.97L64.9952 56.72C65.3801 57.3866 64.899 58.22 64.1292 58.22H52.8708C52.101 58.22 51.6199 57.3866 52.0048 56.72L57.634 46.97Z" fill="#4A5059"/>
</svg>
