<svg width="118" height="104" viewBox="0 0 118 104" fill="none" xmlns="http://www.w3.org/2000/svg">
<path d="M15.9045 75.88C16.4457 75.88 16.8845 75.4412 16.8845 74.9C16.8845 74.3588 16.4457 73.92 15.9045 73.92C15.3633 73.92 14.9245 74.3588 14.9245 74.9C14.9245 75.4412 15.3633 75.88 15.9045 75.88Z" fill="#4A5059"/>
<path d="M79.4545 34.95C71.0845 34.95 62.5645 34.61 54.5945 32.39C46.6245 30.17 39.5945 26.01 33.1945 21.14C29.0045 17.97 25.1945 15.44 19.7445 15.82C14.426 16.1101 9.34059 18.0973 5.2345 21.49C-1.6955 27.55 -0.645498 38.76 2.1245 46.64C6.2845 58.51 18.9445 66.76 29.7045 72.13C42.1345 78.34 55.7845 81.95 69.4845 84.02C81.4845 85.85 96.9045 87.17 107.305 79.33C116.855 72.13 119.475 55.69 117.135 44.59C116.567 41.3108 114.821 38.3521 112.225 36.27C105.515 31.36 95.5045 34.64 87.9645 34.8C85.1645 34.84 82.3145 34.95 79.4545 34.95Z" fill="#272933"/>
<path d="M62.0245 85.24C68.2598 85.24 73.3145 80.1853 73.3145 73.95C73.3145 67.7147 68.2598 62.66 62.0245 62.66C55.7892 62.66 50.7345 67.7147 50.7345 73.95C50.7345 80.1853 55.7892 85.24 62.0245 85.24Z" fill="#4A5059"/>
<path d="M50.3435 3.47164C51.6041 3.19055 52.9248 3.42175 54.015 4.1144C55.1052 4.80705 55.8755 5.9044 56.1566 7.16504L57.9608 15.2563L48.4542 17.3761L46.6501 9.28478C46.369 8.02413 46.6002 6.70346 47.2928 5.61328C47.9855 4.52311 49.0828 3.75273 50.3435 3.47164Z" fill="#2D333E" stroke="#4A5059" stroke-miterlimit="10"/>
<path d="M94.8645 66.95L36.9745 79.85C36.6149 79.9307 36.2405 79.9162 35.8882 79.8081C35.5359 79.7 35.2179 79.5019 34.9655 79.2333C34.7131 78.9648 34.5351 78.6351 34.449 78.2768C34.3629 77.9185 34.3717 77.5439 34.4745 77.19L34.7145 76.36C36.7145 69.27 38.4545 61.46 36.8545 54.26L33.4345 38.89C30.5545 25.95 38.2945 12.83 51.1345 9.64999C54.2661 8.8757 57.5208 8.73505 60.7075 9.23632C63.8942 9.73758 66.9486 10.8707 69.6912 12.569C72.4339 14.2673 74.8094 16.4966 76.6784 19.1259C78.5473 21.7552 79.872 24.7315 80.5745 27.88L84.1045 43.71C85.7145 50.91 90.5745 57.27 95.4345 62.81L96.0045 63.46C96.2499 63.7381 96.4185 64.0754 96.4936 64.4386C96.5686 64.8018 96.5475 65.1784 96.4323 65.5309C96.3172 65.8835 96.1119 66.1999 95.8369 66.4488C95.5619 66.6977 95.2267 66.8704 94.8645 66.95Z" fill="#2D333E" stroke="#4A5059" stroke-miterlimit="10"/>
<path d="M70.4998 46.7508C70.5156 49.0865 69.7308 51.3572 68.2762 53.1847C66.8216 55.0122 64.7849 56.2863 62.5052 56.7948C60.2254 57.3034 57.8403 57.0157 55.7469 55.9796C53.6535 54.9436 51.9781 53.2218 50.9998 51.1008" stroke="#4A5059" stroke-linecap="round" stroke-linejoin="round"/>
<path d="M69.9045 40.81C70.6887 40.81 71.3245 40.1742 71.3245 39.39C71.3245 38.6057 70.6887 37.97 69.9045 37.97C69.1203 37.97 68.4845 38.6057 68.4845 39.39C68.4845 40.1742 69.1203 40.81 69.9045 40.81Z" fill="#4A5059"/>
<path d="M47.8845 45.72C48.6688 45.72 49.3045 45.0842 49.3045 44.3C49.3045 43.5157 48.6688 42.88 47.8845 42.88C47.1003 42.88 46.4645 43.5157 46.4645 44.3C46.4645 45.0842 47.1003 45.72 47.8845 45.72Z" fill="#4A5059"/>
<path d="M74.3645 1.96C74.9058 1.96 75.3445 1.52124 75.3445 0.980001C75.3445 0.438762 74.9058 0 74.3645 0C73.8233 0 73.3845 0.438762 73.3845 0.980001C73.3845 1.52124 73.8233 1.96 74.3645 1.96Z" fill="#4A5059"/>
<path d="M15.9045 75.88C16.4457 75.88 16.8845 75.4412 16.8845 74.9C16.8845 74.3588 16.4457 73.92 15.9045 73.92C15.3633 73.92 14.9245 74.3588 14.9245 74.9C14.9245 75.4412 15.3633 75.88 15.9045 75.88Z" fill="#4A5059"/>
<path d="M101.445 24.65V28.95" stroke="#4A5059" stroke-linecap="round" stroke-linejoin="round"/>
<path d="M99.2845 26.8H103.594" stroke="#4A5059" stroke-linecap="round" stroke-linejoin="round"/>
<path d="M103.404 89.39V93.69" stroke="#4A5059" stroke-linecap="round" stroke-linejoin="round"/>
<path d="M101.255 91.54H105.555" stroke="#4A5059" stroke-linecap="round" stroke-linejoin="round"/>
<path d="M28.2245 8.34999V12.65" stroke="#4A5059" stroke-linecap="round" stroke-linejoin="round"/>
<path d="M26.0745 10.5H30.3745" stroke="#4A5059" stroke-linecap="round" stroke-linejoin="round"/>
<path d="M59.3745 103.46C79.6489 103.46 96.0845 102.435 96.0845 101.17C96.0845 99.9053 79.6489 98.88 59.3745 98.88C39.1001 98.88 22.6645 99.9053 22.6645 101.17C22.6645 102.435 39.1001 103.46 59.3745 103.46Z" fill="#272933"/>
<path d="M94.4445 22.21C94.4418 25.2512 93.2325 28.1671 91.0821 30.3176C88.9316 32.4681 86.0157 33.6773 82.9745 33.68C82.6003 33.6802 82.2265 33.6602 81.8545 33.62L78.4545 39.17L77.3945 32.22C75.62 31.2435 74.1357 29.8144 73.0926 28.0783C72.0495 26.3421 71.4848 24.3606 71.4558 22.3354C71.4268 20.3101 71.9346 18.3133 72.9276 16.548C73.9205 14.7827 75.3633 13.3117 77.1091 12.2848C78.8549 11.2578 80.8415 10.7115 82.8669 10.7013C84.8923 10.6911 86.8843 11.2175 88.6404 12.2268C90.3964 13.2361 91.8539 14.6924 92.8646 16.4477C93.8752 18.203 94.4031 20.1946 94.3945 22.22L94.4445 22.21Z" fill="#2D333E" stroke="#4A5059" stroke-miterlimit="10"/>
<path d="M78.0745 23.37C78.7151 23.37 79.2345 22.8507 79.2345 22.21C79.2345 21.5694 78.7151 21.05 78.0745 21.05C77.4338 21.05 76.9145 21.5694 76.9145 22.21C76.9145 22.8507 77.4338 23.37 78.0745 23.37Z" fill="#4A5059"/>
<path d="M82.9745 23.37C83.6152 23.37 84.1345 22.8507 84.1345 22.21C84.1345 21.5694 83.6152 21.05 82.9745 21.05C82.3339 21.05 81.8145 21.5694 81.8145 22.21C81.8145 22.8507 82.3339 23.37 82.9745 23.37Z" fill="#4A5059"/>
<path d="M87.8745 23.37C88.5152 23.37 89.0345 22.8507 89.0345 22.21C89.0345 21.5694 88.5152 21.05 87.8745 21.05C87.2339 21.05 86.7145 21.5694 86.7145 22.21C86.7145 22.8507 87.2339 23.37 87.8745 23.37Z" fill="#4A5059"/>
</svg>
