<svg width="118" height="105" viewBox="0 0 118 105" fill="none" xmlns="http://www.w3.org/2000/svg">
<path d="M79.4562 35.58C71.0762 35.58 62.5662 35.24 54.5962 33.02C46.6262 30.8 39.6662 26.58 33.1962 21.75C28.9962 18.58 25.1962 16.05 19.7462 16.43C14.427 16.7166 9.34049 18.7043 5.23621 22.1C-1.69379 28.16 -0.643785 39.37 2.11621 47.25C6.27621 59.12 18.9462 67.37 29.6662 72.74C42.0962 78.95 55.7462 82.56 69.4462 84.63C81.4462 86.46 96.8562 87.78 107.256 79.94C116.816 72.74 119.436 56.3 117.096 45.2C116.525 41.9198 114.775 38.961 112.176 36.88C105.466 31.97 95.4562 35.25 87.9162 35.41C85.1562 35.47 82.3162 35.58 79.4562 35.58Z" fill="#272933"/>
<path d="M94.0562 82.42H27.5162V38.59L60.8462 15.67L94.0562 38.59V82.42Z" fill="#1E222A"/>
<path d="M77.3369 9.02598L29.3103 22.0835C27.7968 22.495 26.9034 24.0556 27.3149 25.5691L38.0112 64.911C38.4227 66.4245 39.9833 67.3179 41.4969 66.9064L89.5234 53.8489C91.037 53.4374 91.9304 51.8768 91.5189 50.3633L80.8225 11.0214C80.411 9.50785 78.8505 8.61448 77.3369 9.02598Z" fill="#2D333E" stroke="#4A5059" stroke-miterlimit="10"/>
<path d="M94.0562 82.7H27.5162V38.87L59.1562 58.93L94.0562 38.87V82.7Z" fill="#2D333E" stroke="#4A5059" stroke-miterlimit="10"/>
<path d="M27.5162 82.7L58.9062 52.7C59.498 52.1246 60.2908 51.8026 61.1162 51.8026C61.9416 51.8026 62.7345 52.1246 63.3262 52.7L94.0562 82.7H27.5162Z" fill="#2D333E" stroke="#4A5059" stroke-miterlimit="10"/>
<path d="M51.2162 43.3C51.0983 40.9712 51.7804 38.672 53.1492 36.7841C54.518 34.8963 56.4913 33.5333 58.7414 32.9214C60.9916 32.3095 63.3834 32.4856 65.5197 33.4203C67.656 34.355 69.4085 35.9921 70.4862 38.06" stroke="#4A5059" stroke-linecap="round" stroke-linejoin="round"/>
<path d="M68.2363 26.27C69.0205 26.27 69.6563 25.6342 69.6563 24.85C69.6563 24.0658 69.0205 23.43 68.2363 23.43C67.452 23.43 66.8163 24.0658 66.8163 24.85C66.8163 25.6342 67.452 26.27 68.2363 26.27Z" fill="#4A5059"/>
<path d="M46.4663 32.19C47.2505 32.19 47.8863 31.5543 47.8863 30.77C47.8863 29.9858 47.2505 29.35 46.4663 29.35C45.682 29.35 45.0463 29.9858 45.0463 30.77C45.0463 31.5543 45.682 32.19 46.4663 32.19Z" fill="#4A5059"/>
<path d="M92.8163 24.16C93.3575 24.16 93.7963 23.7213 93.7963 23.18C93.7963 22.6388 93.3575 22.2 92.8163 22.2C92.2751 22.2 91.8363 22.6388 91.8363 23.18C91.8363 23.7213 92.2751 24.16 92.8163 24.16Z" fill="#4A5059"/>
<path d="M22.4862 74.3C23.0275 74.3 23.4662 73.8613 23.4662 73.32C23.4662 72.7788 23.0275 72.34 22.4862 72.34C21.945 72.34 21.5062 72.7788 21.5062 73.32C21.5062 73.8613 21.945 74.3 22.4862 74.3Z" fill="#4A5059"/>
<path d="M109.216 22.7V27.01" stroke="#4A5059" stroke-linecap="round" stroke-linejoin="round"/>
<path d="M107.066 24.86H111.376" stroke="#4A5059" stroke-linecap="round" stroke-linejoin="round"/>
<path d="M103.406 90.02V94.32" stroke="#4A5059" stroke-linecap="round" stroke-linejoin="round"/>
<path d="M101.246 92.17H105.556" stroke="#4A5059" stroke-linecap="round" stroke-linejoin="round"/>
<path d="M20.9263 1V5.3" stroke="#4A5059" stroke-linecap="round" stroke-linejoin="round"/>
<path d="M18.7662 3.15002H23.0762" stroke="#4A5059" stroke-linecap="round" stroke-linejoin="round"/>
<path d="M59.3763 104.09C79.6506 104.09 96.0863 103.065 96.0863 101.8C96.0863 100.535 79.6506 99.51 59.3763 99.51C39.1019 99.51 22.6663 100.535 22.6663 101.8C22.6663 103.065 39.1019 104.09 59.3763 104.09Z" fill="#272933"/>
</svg>
