<svg width="118" height="110" viewBox="0 0 118 110" fill="none" xmlns="http://www.w3.org/2000/svg">
<path d="M102.734 26.66V30.97" stroke="#4A5059" stroke-linecap="round" stroke-linejoin="round"/>
<path d="M100.585 28.82H104.884" stroke="#4A5059" stroke-linecap="round" stroke-linejoin="round"/>
<path d="M14.5745 10.03V14.34" stroke="#4A5059" stroke-linecap="round" stroke-linejoin="round"/>
<path d="M12.4145 12.18H16.7245" stroke="#4A5059" stroke-linecap="round" stroke-linejoin="round"/>
<path d="M48.0345 1.96C48.5757 1.96 49.0145 1.52124 49.0145 0.98C49.0145 0.43876 48.5757 0 48.0345 0C47.4933 0 47.0545 0.43876 47.0545 0.98C47.0545 1.52124 47.4933 1.96 48.0345 1.96Z" fill="#4A5059"/>
<path d="M79.4545 40.92C71.0745 40.92 62.5645 40.59 54.5945 38.37C46.7745 36.17 39.6345 31.99 33.1945 27.17C28.9945 23.99 25.1945 21.47 19.7445 21.85C14.4314 22.1238 9.3459 24.0935 5.2345 27.47C-1.6955 33.53 -0.645498 44.74 2.1245 52.62C6.2845 64.49 18.9845 72.74 29.7045 78.11C42.1345 84.32 55.7845 87.93 69.4845 90C81.4845 91.83 96.8945 93.15 107.295 85.31C116.854 78.11 119.474 61.67 117.134 50.57C116.566 47.2888 114.816 44.3292 112.215 42.25C105.505 37.34 95.5045 40.62 87.9645 40.78C85.1645 40.84 82.3145 40.91 79.4545 40.92Z" fill="#272933"/>
<path d="M58.9645 109.46C79.2389 109.46 95.6745 108.435 95.6745 107.17C95.6745 105.905 79.2389 104.88 58.9645 104.88C38.6901 104.88 22.2545 105.905 22.2545 107.17C22.2545 108.435 38.6901 109.46 58.9645 109.46Z" fill="#272933"/>
<path d="M74.5592 3.32263L25.6839 9.93083C24.1186 10.1425 23.0212 11.5829 23.2329 13.1482L32.7111 83.2504C32.9227 84.8157 34.3632 85.913 35.9285 85.7014L84.8038 79.0932C86.369 78.8816 87.4664 77.4411 87.2548 75.8758L77.7766 5.77364C77.5649 4.20834 76.1245 3.11099 74.5592 3.32263Z" fill="#4A5059"/>
<path d="M90.8045 13.62H41.4845C39.905 13.62 38.6245 14.9005 38.6245 16.48V87.22C38.6245 88.7995 39.905 90.08 41.4845 90.08H90.8045C92.384 90.08 93.6645 88.7995 93.6645 87.22V16.48C93.6645 14.9005 92.384 13.62 90.8045 13.62Z" fill="#2D333E" stroke="#4A5059" stroke-miterlimit="10"/>
<path d="M77.9945 68.53H54.2845C53.3953 68.53 52.6745 69.2508 52.6745 70.14V70.15C52.6745 71.0391 53.3953 71.76 54.2845 71.76H77.9945C78.8837 71.76 79.6045 71.0391 79.6045 70.15V70.14C79.6045 69.2508 78.8837 68.53 77.9945 68.53Z" fill="#4A5059"/>
<path d="M77.1445 81.73H54.3945C54.1239 81.73 53.9045 81.9494 53.9045 82.22V82.37C53.9045 82.6406 54.1239 82.86 54.3945 82.86H77.1445C77.4151 82.86 77.6345 82.6406 77.6345 82.37V82.22C77.6345 81.9494 77.4151 81.73 77.1445 81.73Z" fill="#4A5059"/>
<path d="M82.9445 76.44H49.4345C49.0755 76.44 48.7845 76.731 48.7845 77.09C48.7845 77.449 49.0755 77.74 49.4345 77.74H82.9445C83.3035 77.74 83.5945 77.449 83.5945 77.09C83.5945 76.731 83.3035 76.44 82.9445 76.44Z" fill="#4A5059"/>
<path d="M89.0745 15.94H43.2145C42.0768 15.94 41.1545 16.8623 41.1545 18V57.77C41.1545 58.9077 42.0768 59.83 43.2145 59.83H89.0745C90.2122 59.83 91.1345 58.9077 91.1345 57.77V18C91.1345 16.8623 90.2122 15.94 89.0745 15.94Z" fill="#2D333E" stroke="#4A5059" stroke-miterlimit="10"/>
<path d="M72.2645 47.51C72.5938 47.5077 72.9144 47.4038 73.1825 47.2126C73.4506 47.0213 73.6532 46.752 73.7626 46.4414C73.872 46.1308 73.8828 45.7939 73.7937 45.4769C73.7045 45.1599 73.5197 44.8781 73.2645 44.67C71.1761 42.9479 68.5476 42.017 65.8408 42.0407C63.1341 42.0645 60.5223 43.0415 58.4645 44.8C58.2148 45.0149 58.0371 45.3013 57.9554 45.6205C57.8736 45.9396 57.8918 46.2762 58.0073 46.5847C58.1229 46.8932 58.3303 47.1589 58.6016 47.3458C58.8729 47.5327 59.195 47.6319 59.5245 47.63L72.2645 47.51Z" stroke="#4A5059" stroke-width="0.71" stroke-linecap="round" stroke-linejoin="round"/>
<path d="M80.4345 37.49L74.6045 34.13L80.4345 30.77" stroke="#4A5059" stroke-width="0.71" stroke-linecap="round" stroke-linejoin="round"/>
<path d="M51.3745 37.49L57.1945 34.13L51.3745 30.77" stroke="#4A5059" stroke-width="0.71" stroke-linecap="round" stroke-linejoin="round"/>
<path d="M19.4045 58.83V63.13" stroke="#4A5059" stroke-linecap="round" stroke-linejoin="round"/>
<path d="M17.2545 60.98H21.5545" stroke="#4A5059" stroke-linecap="round" stroke-linejoin="round"/>
<path d="M100.904 61.87C101.446 61.87 101.884 61.4312 101.884 60.89C101.884 60.3487 101.446 59.91 100.904 59.91C100.363 59.91 99.9245 60.3487 99.9245 60.89C99.9245 61.4312 100.363 61.87 100.904 61.87Z" fill="#4A5059"/>
</svg>
