<svg width="118" height="116" viewBox="0 0 118 116" fill="none" xmlns="http://www.w3.org/2000/svg">
<path d="M79.4562 46.83C71.0762 46.83 62.5662 46.49 54.5962 44.27C46.7762 42.1 39.5962 37.89 33.1962 33.02C28.9962 29.85 25.1962 27.33 19.7462 27.71C14.4259 27.9917 9.33794 29.9799 5.23621 33.38C-1.69379 39.44 -0.643786 50.64 2.11621 58.53C6.28621 70.38 18.9862 78.62 29.7062 84C42.1362 90.21 55.7862 93.83 69.4862 95.89C81.4862 97.71 96.8962 99.04 107.296 91.2C116.856 84 119.476 67.56 117.136 56.45C116.562 53.1707 114.813 50.2129 112.216 48.13C105.506 43.22 95.4962 46.5 87.9562 46.67C85.1562 46.73 82.3162 46.83 79.4562 46.83Z" fill="#272933"/>
<path d="M58.9662 115.34C79.2406 115.34 95.6762 114.315 95.6762 113.05C95.6762 111.785 79.2406 110.76 58.9662 110.76C38.6919 110.76 22.2562 111.785 22.2562 113.05C22.2562 114.315 38.6919 115.34 58.9662 115.34Z" fill="#272933"/>
<path d="M77.7763 1.96C78.3175 1.96 78.7563 1.52124 78.7563 0.98C78.7563 0.43876 78.3175 0 77.7763 0C77.235 0 76.7963 0.43876 76.7963 0.98C76.7963 1.52124 77.235 1.96 77.7763 1.96Z" fill="#4A5059"/>
<path d="M32.9862 97.08C33.5275 97.08 33.9662 96.6412 33.9662 96.1C33.9662 95.5588 33.5275 95.12 32.9862 95.12C32.445 95.12 32.0062 95.5588 32.0062 96.1C32.0062 96.6412 32.445 97.08 32.9862 97.08Z" fill="#4A5059"/>
<path d="M89.3262 102.08V106.39" stroke="#4A5059" stroke-linecap="round" stroke-linejoin="round"/>
<path d="M87.1663 104.23H91.4763" stroke="#4A5059" stroke-linecap="round" stroke-linejoin="round"/>
<path d="M57.3862 5.66003C46.7776 5.66003 36.6034 9.87431 29.102 17.3758C21.6005 24.8772 17.3862 35.0514 17.3862 45.66C17.3862 75.02 57.3862 102.52 57.3862 102.52C57.3862 102.52 97.3862 75.45 97.3862 45.66C97.3862 35.0514 93.172 24.8772 85.6705 17.3758C78.169 9.87431 67.9949 5.66003 57.3862 5.66003ZM57.3862 60.66C54.2694 60.662 51.2218 59.7403 48.6284 58.0113C46.0351 56.2823 44.0122 53.8236 42.8154 50.9457C41.6185 48.0677 41.3013 44.8997 41.9038 41.8416C42.5063 38.7835 44.0015 35.9725 46.2006 33.7637C48.3997 31.5549 51.204 30.0472 54.2594 29.4311C57.3147 28.8151 60.4842 29.1183 63.3674 30.3024C66.2506 31.4865 68.7182 33.4984 70.4587 36.0841C72.1992 38.6697 73.1344 41.7132 73.1462 44.83C73.1502 46.9027 72.7455 48.9557 71.9554 50.8719C71.1653 52.788 70.0052 54.5295 68.5415 55.997C67.0777 57.4644 65.3391 58.6289 63.425 59.4239C61.5109 60.2189 59.4589 60.6287 57.3862 60.63V60.66Z" fill="#2D333E" stroke="#4A5059" stroke-miterlimit="10"/>
<path d="M15.0662 13.07V17.38" stroke="#4A5059" stroke-linecap="round" stroke-linejoin="round"/>
<path d="M12.9062 15.22H17.2163" stroke="#4A5059" stroke-linecap="round" stroke-linejoin="round"/>
<path d="M104.586 24.77V29.07" stroke="#4A5059" stroke-linecap="round" stroke-linejoin="round"/>
<path d="M102.426 26.92H106.736" stroke="#4A5059" stroke-linecap="round" stroke-linejoin="round"/>
<path d="M62.7062 39.02L52.0762 49.64" stroke="#4A5059" stroke-linecap="round" stroke-linejoin="round"/>
<path d="M52.0762 39.02L62.7062 49.64" stroke="#4A5059" stroke-linecap="round" stroke-linejoin="round"/>
</svg>
