<svg width="118" height="110" viewBox="0 0 118 110" fill="none" xmlns="http://www.w3.org/2000/svg">
<path d="M102.731 26.66V30.97" stroke="#BABABA" stroke-linecap="round" stroke-linejoin="round"/>
<path d="M100.581 28.81H104.881" stroke="#BABABA" stroke-linecap="round" stroke-linejoin="round"/>
<path d="M14.5712 10.03V14.33" stroke="#BABABA" stroke-linecap="round" stroke-linejoin="round"/>
<path d="M12.4112 12.18H16.7212" stroke="#BABABA" stroke-linecap="round" stroke-linejoin="round"/>
<path d="M48.0312 1.96C48.5724 1.96 49.0112 1.52124 49.0112 0.98C49.0112 0.43876 48.5724 0 48.0312 0C47.49 0 47.0512 0.43876 47.0512 0.98C47.0512 1.52124 47.49 1.96 48.0312 1.96Z" fill="#CFCFCF"/>
<path d="M79.4512 40.92C71.0812 40.92 62.5612 40.58 54.5912 38.36C46.7712 36.19 39.5912 31.98 33.1912 27.11C29.0012 23.94 25.1912 21.42 19.7512 21.8C14.4247 22.0916 9.3336 24.0902 5.23121 27.5C-1.68879 33.5 -0.648793 44.73 2.12121 52.62C6.28121 64.5 18.9412 72.73 29.7012 78.11C42.1312 84.32 55.7912 87.92 69.4812 90C81.4812 91.82 96.9012 93.15 107.301 85.31C116.851 78.11 119.471 61.67 117.131 50.57C116.564 47.2879 114.818 44.3258 112.221 42.24C105.511 37.34 95.5012 40.61 87.9612 40.78C85.1612 40.84 82.3112 40.91 79.4512 40.92Z" fill="#F2F2F2"/>
<path d="M58.9712 109.45C79.2456 109.45 95.6812 108.425 95.6812 107.16C95.6812 105.895 79.2456 104.87 58.9712 104.87C38.6968 104.87 22.2612 105.895 22.2612 107.16C22.2612 108.425 38.6968 109.45 58.9712 109.45Z" fill="#F2F2F2"/>
<path d="M74.5639 3.32116L25.6886 9.92936C24.1234 10.141 23.026 11.5815 23.2376 13.1468L32.7158 83.2489C32.9275 84.8142 34.3679 85.9116 35.9332 85.6999L84.8085 79.0917C86.3738 78.8801 87.4712 77.4396 87.2595 75.8743L77.7813 5.77217C77.5697 4.20688 76.1292 3.10953 74.5639 3.32116Z" fill="#D2D2D2"/>
<path d="M90.8012 13.61H41.4812C39.9017 13.61 38.6212 14.8905 38.6212 16.47V87.21C38.6212 88.7895 39.9017 90.07 41.4812 90.07H90.8012C92.3807 90.07 93.6612 88.7895 93.6612 87.21V16.47C93.6612 14.8905 92.3807 13.61 90.8012 13.61Z" fill="white" stroke="#BABABA" stroke-linecap="round" stroke-linejoin="round"/>
<path d="M77.9912 68.53H54.2812C53.392 68.53 52.6712 69.2508 52.6712 70.14V70.15C52.6712 71.0392 53.392 71.76 54.2812 71.76H77.9912C78.8804 71.76 79.6012 71.0392 79.6012 70.15V70.14C79.6012 69.2508 78.8804 68.53 77.9912 68.53Z" fill="#D2D2D2"/>
<path d="M77.1412 81.73H54.3912C54.1206 81.73 53.9012 81.9494 53.9012 82.22V82.37C53.9012 82.6406 54.1206 82.86 54.3912 82.86H77.1412C77.4118 82.86 77.6312 82.6406 77.6312 82.37V82.22C77.6312 81.9494 77.4118 81.73 77.1412 81.73Z" fill="#D2D2D2"/>
<path d="M82.9412 76.44H49.4312C49.0722 76.44 48.7812 76.731 48.7812 77.09C48.7812 77.449 49.0722 77.74 49.4312 77.74H82.9412C83.3002 77.74 83.5912 77.449 83.5912 77.09C83.5912 76.731 83.3002 76.44 82.9412 76.44Z" fill="#D2D2D2"/>
<path d="M89.0712 15.94H43.2112C42.0735 15.94 41.1512 16.8623 41.1512 18V57.77C41.1512 58.9077 42.0735 59.83 43.2112 59.83H89.0712C90.2089 59.83 91.1312 58.9077 91.1312 57.77V18C91.1312 16.8623 90.2089 15.94 89.0712 15.94Z" fill="white" stroke="#BABABA" stroke-linecap="round" stroke-linejoin="round"/>
<path d="M72.2612 47.5C72.5879 47.4922 72.9044 47.3852 73.1688 47.1933C73.4332 47.0013 73.633 46.7334 73.7415 46.4252C73.85 46.117 73.8622 45.783 73.7764 45.4677C73.6906 45.1525 73.5109 44.8707 73.2612 44.66C71.1753 42.9323 68.5458 41.9978 65.8375 42.0216C63.1291 42.0454 60.5164 43.026 58.4612 44.79C58.2135 45 58.0356 45.2803 57.9511 45.5938C57.8666 45.9073 57.8794 46.2391 57.9879 46.5451C58.0965 46.8511 58.2955 47.1169 58.5587 47.3071C58.8218 47.4973 59.1366 47.603 59.4612 47.61L72.2612 47.5Z" fill="white" stroke="#BABABA" stroke-linecap="round" stroke-linejoin="round"/>
<path d="M80.4312 37.49L74.6012 34.13L80.4312 30.76" stroke="#BABABA" stroke-width="0.71" stroke-linecap="round" stroke-linejoin="round"/>
<path d="M51.3712 37.49L57.2012 34.13L51.3712 30.76" stroke="#BABABA" stroke-width="0.71" stroke-linecap="round" stroke-linejoin="round"/>
<path d="M19.4012 58.82V63.13" stroke="#BABABA" stroke-linecap="round" stroke-linejoin="round"/>
<path d="M17.2512 60.97H21.5612" stroke="#BABABA" stroke-linecap="round" stroke-linejoin="round"/>
<path d="M100.911 61.87C101.452 61.87 101.891 61.4312 101.891 60.89C101.891 60.3488 101.452 59.91 100.911 59.91C100.37 59.91 99.9312 60.3488 99.9312 60.89C99.9312 61.4312 100.37 61.87 100.911 61.87Z" fill="#CFCFCF"/>
</svg>
