<svg width="118" height="104" viewBox="0 0 118 104" fill="none" xmlns="http://www.w3.org/2000/svg">
<path d="M58.9662 81.6C59.5074 81.6 59.9462 81.1612 59.9462 80.62C59.9462 80.0787 59.5074 79.64 58.9662 79.64C58.425 79.64 57.9862 80.0787 57.9862 80.62C57.9862 81.1612 58.425 81.6 58.9662 81.6Z" fill="#4A5059"/>
<path d="M30.4962 7.81999V12.12" stroke="#4A5059" stroke-linecap="round" stroke-linejoin="round"/>
<path d="M28.3462 9.96999H32.6562" stroke="#4A5059" stroke-linecap="round" stroke-linejoin="round"/>
<path d="M79.4562 34.96C71.0762 34.96 62.5662 34.62 54.5962 32.4C46.6262 30.18 39.5962 26.02 33.1962 21.15C28.9962 17.98 25.1962 15.45 19.7462 15.83C14.427 16.1166 9.34049 18.1042 5.23621 21.5C-1.69379 27.56 -0.643786 38.77 2.11621 46.65C6.28621 58.5 18.9562 66.75 29.7062 72.12C42.1362 78.33 55.7862 81.94 69.4862 84.01C81.4862 85.84 96.8962 87.16 107.296 79.32C116.856 72.12 119.476 55.68 117.136 44.58C116.565 41.2997 114.815 38.341 112.216 36.26C105.506 31.35 95.4962 34.63 87.9562 34.79C85.1562 34.85 82.3162 34.96 79.4562 34.96Z" fill="#272933"/>
<path d="M65.9062 1.96C66.4474 1.96 66.8862 1.52124 66.8862 0.98C66.8862 0.43876 66.4474 0 65.9062 0C65.365 0 64.9262 0.43876 64.9262 0.98C64.9262 1.52124 65.365 1.96 65.9062 1.96Z" fill="#4A5059"/>
<path d="M14.9962 78.27V82.57" stroke="#4A5059" stroke-linecap="round" stroke-linejoin="round"/>
<path d="M12.8362 80.42H17.1462" stroke="#4A5059" stroke-linecap="round" stroke-linejoin="round"/>
<path d="M59.3762 103.47C79.6506 103.47 96.0862 102.445 96.0862 101.18C96.0862 99.9153 79.6506 98.89 59.3762 98.89C39.1018 98.89 22.6662 99.9153 22.6662 101.18C22.6662 102.445 39.1018 103.47 59.3762 103.47Z" fill="#272933"/>
<path d="M88.8762 76.65H25.4762C25.0518 76.6497 24.6326 76.5572 24.2475 76.379C23.8624 76.2007 23.5206 75.9409 23.2458 75.6176C22.9709 75.2943 22.7696 74.9151 22.6557 74.5063C22.5419 74.0975 22.5181 73.6689 22.5862 73.25L30.6862 24.07C30.7999 23.3856 31.1527 22.7637 31.6819 22.315C32.2112 21.8664 32.8824 21.6201 33.5762 21.62H96.9562C97.3806 21.6203 97.7998 21.7128 98.1849 21.891C98.57 22.0693 98.9118 22.3291 99.1866 22.6524C99.4615 22.9757 99.6628 23.3549 99.7767 23.7637C99.8906 24.1725 99.9143 24.6011 99.8462 25.02L91.7462 74.2C91.635 74.8819 91.2856 75.5023 90.7601 75.9509C90.2346 76.3995 89.5671 76.6472 88.8762 76.65Z" fill="#2D333E" stroke="#4A5059" stroke-miterlimit="10"/>
<path d="M89.6497 20.331L52.0109 3.52594C50.9015 3.03058 49.6005 3.52841 49.1051 4.63788L37.176 31.3557C36.6807 32.4652 37.1785 33.7662 38.288 34.2615L75.9267 51.0666C77.0362 51.562 78.3372 51.0642 78.8325 49.9547L90.7616 23.2368C91.257 22.1274 90.7592 20.8264 89.6497 20.331Z" fill="#2D333E" stroke="#4A5059" stroke-miterlimit="10"/>
<path d="M57.5362 25.51C58.5391 24.1499 59.9767 23.1735 61.6107 22.7427C63.2447 22.3118 64.9769 22.4524 66.52 23.1411C68.0631 23.8297 69.3245 25.0252 70.095 26.5291C70.8655 28.0331 71.0988 29.7552 70.7562 31.41" stroke="#4A5059" stroke-width="0.68" stroke-linecap="round" stroke-linejoin="round"/>
<path d="M75.5462 24C76.1151 24 76.5762 23.5388 76.5762 22.97C76.5762 22.4011 76.1151 21.94 75.5462 21.94C74.9774 21.94 74.5162 22.4011 74.5162 22.97C74.5162 23.5388 74.9774 24 75.5462 24Z" fill="#4A5059"/>
<path d="M60.6262 17.34C61.1951 17.34 61.6562 16.8789 61.6562 16.31C61.6562 15.7411 61.1951 15.28 60.6262 15.28C60.0574 15.28 59.5962 15.7411 59.5962 16.31C59.5962 16.8789 60.0574 17.34 60.6262 17.34Z" fill="#4A5059"/>
<path d="M88.5962 76.63H24.8862C24.5011 76.6313 24.1195 76.5564 23.7634 76.4096C23.4073 76.2629 23.0838 76.0471 22.8114 75.7748C22.5391 75.5024 22.3233 75.1789 22.1765 74.8228C22.0298 74.4667 21.9549 74.0851 21.9562 73.7V28.7C21.9549 28.3157 22.0294 27.9349 22.1756 27.5795C22.3218 27.2241 22.5366 26.901 22.8079 26.6288C23.0792 26.3566 23.4015 26.1406 23.7565 25.9932C24.1114 25.8458 24.4919 25.77 24.8762 25.77H48.0762C48.6165 25.7701 49.1462 25.9196 49.6068 26.202C50.0674 26.4844 50.441 26.8886 50.6862 27.37L53.9962 33.85C54.2398 34.3306 54.6116 34.7344 55.0705 35.0168C55.5293 35.2992 56.0574 35.4491 56.5962 35.45H88.5962C89.3716 35.45 90.1153 35.7573 90.6645 36.3046C91.2137 36.8519 91.5236 37.5946 91.5262 38.37V73.7C91.5262 74.0848 91.4504 74.4658 91.3032 74.8212C91.1559 75.1767 90.9401 75.4997 90.668 75.7718C90.396 76.0439 90.073 76.2597 89.7175 76.407C89.362 76.5542 88.981 76.63 88.5962 76.63Z" fill="#2D333E" stroke="#4A5059" stroke-miterlimit="10"/>
<path d="M78.8162 36.96C75.1355 36.96 71.5374 38.0515 68.477 40.0963C65.4166 42.1412 63.0314 45.0477 61.6228 48.4483C60.2143 51.8488 59.8457 55.5906 60.5638 59.2006C61.2819 62.8106 63.0543 66.1266 65.6569 68.7292C68.2596 71.3319 71.5756 73.1043 75.1856 73.8224C78.7956 74.5405 82.5374 74.1719 85.9379 72.7634C89.3385 71.3548 92.245 68.9696 94.2899 65.9092C96.3347 62.8488 97.4262 59.2507 97.4262 55.57C97.4275 53.1257 96.9471 50.7052 96.0123 48.4467C95.0775 46.1882 93.7068 44.1362 91.9784 42.4078C90.25 40.6794 88.198 39.3087 85.9395 38.3739C83.681 37.4391 81.2605 36.9587 78.8162 36.96Z" fill="#2D333E" stroke="#4A5059" stroke-miterlimit="10"/>
<path d="M92.0362 69.09L96.9962 74.05" stroke="#4A5059" stroke-width="0.68" stroke-linecap="round" stroke-linejoin="round"/>
<path d="M96.4308 71.6517L94.8899 73.2637C94.1991 73.9862 94.2249 75.132 94.9475 75.8228L108.32 88.6064C109.043 89.2972 110.188 89.2714 110.879 88.5488L112.42 86.9368C113.111 86.2142 113.085 85.0685 112.363 84.3778L98.9899 71.5941C98.2673 70.9033 97.1216 70.9291 96.4308 71.6517Z" fill="#4A5059"/>
<path d="M106.326 0.979996V5.29" stroke="#4A5059" stroke-linecap="round" stroke-linejoin="round"/>
<path d="M104.176 3.13998H108.486" stroke="#4A5059" stroke-linecap="round" stroke-linejoin="round"/>
</svg>
