<svg width="118" height="105" viewBox="0 0 118 105" fill="none" xmlns="http://www.w3.org/2000/svg">
<path d="M79.4512 35.56C71.0812 35.56 62.5612 35.22 54.5912 33C46.7712 30.83 39.5912 26.62 33.1912 21.75C29.0012 18.58 25.1912 16.05 19.7512 16.43C14.4293 16.718 9.34 18.7053 5.23121 22.1C-1.68879 28.16 -0.648793 39.39 2.12121 47.25C6.28121 59.12 18.9412 67.39 29.7012 72.74C42.1312 78.95 55.7812 82.56 69.4812 84.63C81.4812 86.46 96.9012 87.78 107.301 79.95C116.851 72.74 119.471 56.3 117.131 45.2C116.563 41.9209 114.817 38.9621 112.221 36.88C105.511 31.97 95.5012 35.25 87.9612 35.41C85.1612 35.47 82.3112 35.54 79.4512 35.56Z" fill="#F2F2F2"/>
<path d="M94.0512 82.43H27.5212V38.59L60.8512 15.67L94.0512 38.59V82.43Z" fill="#D2D2D2"/>
<path d="M77.3389 9.03312L29.3123 22.0907C27.7987 22.5022 26.9054 24.0627 27.3169 25.5763L38.0132 64.9181C38.4247 66.4317 39.9853 67.3251 41.4988 66.9135L89.5254 53.856C91.0389 53.4445 91.9323 51.8839 91.5208 50.3704L80.8245 11.0285C80.413 9.515 78.8524 8.62162 77.3389 9.03312Z" fill="white" stroke="#BABABA" stroke-linecap="round" stroke-linejoin="round"/>
<path d="M94.0512 82.7H27.5212V38.87L59.1512 58.93L94.0512 38.87V82.7Z" fill="white" stroke="#BABABA" stroke-linecap="round" stroke-linejoin="round"/>
<path d="M27.5212 82.7L58.9012 52.7C59.493 52.1246 60.2858 51.8026 61.1112 51.8026C61.9366 51.8026 62.7295 52.1246 63.3212 52.7L94.0512 82.7H27.5212Z" fill="white" stroke="#BABABA" stroke-linecap="round" stroke-linejoin="round"/>
<path d="M51.2112 43.3C51.0882 40.9675 51.7679 38.6632 53.1372 36.7708C54.5065 34.8785 56.4826 33.5122 58.7366 32.8996C60.9906 32.287 63.3865 32.465 65.5252 33.4039C67.664 34.3429 69.4166 35.9861 70.4912 38.06" stroke="#BABABA" stroke-linecap="round" stroke-linejoin="round"/>
<path d="M68.2313 26.27C69.0155 26.27 69.6513 25.6342 69.6513 24.85C69.6513 24.0657 69.0155 23.43 68.2313 23.43C67.447 23.43 66.8113 24.0657 66.8113 24.85C66.8113 25.6342 67.447 26.27 68.2313 26.27Z" fill="#BABABA"/>
<path d="M46.4713 32.19C47.2555 32.19 47.8913 31.5543 47.8913 30.77C47.8913 29.9858 47.2555 29.35 46.4713 29.35C45.687 29.35 45.0513 29.9858 45.0513 30.77C45.0513 31.5543 45.687 32.19 46.4713 32.19Z" fill="#BABABA"/>
<path d="M92.8213 24.16C93.3625 24.16 93.8013 23.7213 93.8013 23.18C93.8013 22.6388 93.3625 22.2 92.8213 22.2C92.2801 22.2 91.8413 22.6388 91.8413 23.18C91.8413 23.7213 92.2801 24.16 92.8213 24.16Z" fill="#CFCFCF"/>
<path d="M22.4912 74.3C23.0325 74.3 23.4712 73.8613 23.4712 73.32C23.4712 72.7788 23.0325 72.34 22.4912 72.34C21.95 72.34 21.5112 72.7788 21.5112 73.32C21.5112 73.8613 21.95 74.3 22.4912 74.3Z" fill="#CFCFCF"/>
<path d="M109.221 22.7V27.01" stroke="#BABABA" stroke-linecap="round" stroke-linejoin="round"/>
<path d="M107.071 24.86H111.371" stroke="#BABABA" stroke-linecap="round" stroke-linejoin="round"/>
<path d="M103.401 90.02V94.32" stroke="#BABABA" stroke-linecap="round" stroke-linejoin="round"/>
<path d="M101.251 92.17H105.551" stroke="#BABABA" stroke-linecap="round" stroke-linejoin="round"/>
<path d="M20.9211 1V5.3" stroke="#BABABA" stroke-linecap="round" stroke-linejoin="round"/>
<path d="M18.7712 3.15002H23.0712" stroke="#BABABA" stroke-linecap="round" stroke-linejoin="round"/>
<path d="M59.3714 104.09C79.6458 104.09 96.0814 103.065 96.0814 101.8C96.0814 100.535 79.6458 99.51 59.3714 99.51C39.097 99.51 22.6614 100.535 22.6614 101.8C22.6614 103.065 39.097 104.09 59.3714 104.09Z" fill="#F2F2F2"/>
</svg>
