<svg width="118" height="112" viewBox="0 0 118 112" fill="none" xmlns="http://www.w3.org/2000/svg">
<path d="M79.4562 43.09C71.0762 43.14 62.5662 42.75 54.5962 40.53C46.6262 38.31 39.5962 34.15 33.1962 29.28C28.9962 26.11 25.1962 23.59 19.7462 23.97C14.4259 24.2517 9.33794 26.2399 5.23621 29.64C-1.69379 35.7 -0.643786 46.86 2.11621 54.79C6.28621 66.66 18.9562 74.86 29.7062 80.28C42.1362 86.49 55.7862 90.09 69.4862 92.17C81.4862 93.99 96.8962 95.32 107.296 87.48C116.856 80.28 119.476 63.84 117.136 52.74C116.566 49.4568 114.816 46.4947 112.216 44.41C105.506 39.51 95.4962 42.78 87.9562 42.95C85.1562 43.01 82.3162 43.07 79.4562 43.09Z" fill="#272933"/>
<path d="M58.9662 111.62C79.2406 111.62 95.6762 110.595 95.6762 109.33C95.6762 108.065 79.2406 107.04 58.9662 107.04C38.6919 107.04 22.2562 108.065 22.2562 109.33C22.2562 110.595 38.6919 111.62 58.9662 111.62Z" fill="#272933"/>
<path d="M96.4862 30.87V35.18" stroke="#4A5059" stroke-linecap="round" stroke-linejoin="round"/>
<path d="M94.3262 33.03H98.6362" stroke="#4A5059" stroke-linecap="round" stroke-linejoin="round"/>
<path d="M24.2562 67.09V71.39" stroke="#4A5059" stroke-linecap="round" stroke-linejoin="round"/>
<path d="M22.1062 69.24H26.4162" stroke="#4A5059" stroke-linecap="round" stroke-linejoin="round"/>
<path d="M18.2262 12.95V17.25" stroke="#4A5059" stroke-linecap="round" stroke-linejoin="round"/>
<path d="M16.0762 15.1H20.3762" stroke="#4A5059" stroke-linecap="round" stroke-linejoin="round"/>
<path d="M65.0962 2.96C65.6374 2.96 66.0762 2.52124 66.0762 1.98C66.0762 1.43876 65.6374 1 65.0962 1C64.555 1 64.1162 1.43876 64.1162 1.98C64.1162 2.52124 64.555 2.96 65.0962 2.96Z" fill="#4A5059"/>
<path d="M62.7462 98.57C63.2875 98.57 63.7262 98.1312 63.7262 97.59C63.7262 97.0487 63.2875 96.61 62.7462 96.61C62.205 96.61 61.7662 97.0487 61.7662 97.59C61.7662 98.1312 62.205 98.57 62.7462 98.57Z" fill="#4A5059"/>
<path d="M83.7929 7.64512L26.7598 13.5691C25.4579 13.7043 24.5121 14.8694 24.6473 16.1713L32.4475 91.2673C32.5827 92.5692 33.7477 93.515 35.0496 93.3797L92.0828 87.4557C93.3847 87.3205 94.3305 86.1555 94.1953 84.8536L86.3951 9.75759C86.2599 8.45568 85.0949 7.5099 83.7929 7.64512Z" fill="#2D333E" stroke="#4A5059" stroke-miterlimit="10"/>
<path d="M81.3387 11.1214L29.8656 16.4679C28.5637 16.6031 27.6179 17.7681 27.7532 19.07L34.8074 86.9846C34.9426 88.2866 36.1076 89.2323 37.4096 89.0971L88.8826 83.7507C90.1846 83.6154 91.1303 82.4504 90.9951 81.1485L83.9409 13.2339C83.8056 11.9319 82.6406 10.9862 81.3387 11.1214Z" fill="#2D333E" stroke="#4A5059" stroke-miterlimit="10"/>
<path d="M72.4662 14.44L71.6662 6.73998C71.65 6.57904 71.6022 6.42289 71.5255 6.28046C71.4488 6.13803 71.3448 6.01212 71.2194 5.90995C71.094 5.80777 70.9497 5.73133 70.7947 5.68501C70.6397 5.63868 70.4771 5.62338 70.3162 5.63998L60.7662 6.63998C60.5579 5.13104 59.7712 3.76216 58.5722 2.82256C57.3733 1.88295 55.856 1.44621 54.341 1.60459C52.826 1.76297 51.4319 2.50407 50.4533 3.67133C49.4746 4.83858 48.988 6.34057 49.0962 7.85998L39.5362 8.85998C39.3757 8.87617 39.2199 8.92405 39.078 9.00085C38.936 9.07766 38.8108 9.18186 38.7094 9.30742C38.608 9.43298 38.5325 9.5774 38.4874 9.73233C38.4422 9.88726 38.4282 10.0496 38.4462 10.21L39.2462 17.91C39.2625 18.0709 39.3103 18.2271 39.387 18.3695C39.4636 18.5119 39.5676 18.6378 39.693 18.74C39.8184 18.8422 39.9628 18.9186 40.1177 18.965C40.2727 19.0113 40.4353 19.0266 40.5962 19.01L71.3762 15.81C71.5382 15.7926 71.695 15.7433 71.8377 15.6648C71.9805 15.5863 72.1062 15.4802 72.2076 15.3528C72.309 15.2253 72.384 15.079 72.4284 14.9223C72.4728 14.7656 72.4857 14.6017 72.4662 14.44Z" fill="#4A5059"/>
<path d="M47.7162 61.3799C48.0484 58.4171 49.3837 55.6569 51.5004 53.5572C53.6172 51.4576 56.3881 50.1448 59.3536 49.8365C62.3191 49.5283 65.3008 50.2432 67.8041 51.8627C70.3073 53.4821 72.1817 55.9087 73.1162 58.7399" stroke="#4A5059" stroke-linecap="round" stroke-linejoin="round"/>
<path d="M49.1662 38.48L44.3862 44.38" stroke="#4A5059" stroke-linecap="round" stroke-linejoin="round"/>
<path d="M43.8262 39.04L49.7262 43.82" stroke="#4A5059" stroke-linecap="round" stroke-linejoin="round"/>
<path d="M72.3261 36.08L67.5461 41.97" stroke="#4A5059" stroke-linecap="round" stroke-linejoin="round"/>
<path d="M66.9862 36.63L72.8862 41.42" stroke="#4A5059" stroke-linecap="round" stroke-linejoin="round"/>
</svg>
