<svg width="118" height="112" viewBox="0 0 118 112" fill="none" xmlns="http://www.w3.org/2000/svg">
<path d="M79.4512 43.08C71.0812 43.08 62.5612 42.74 54.5912 40.52C46.7712 38.35 39.5912 34.14 33.1912 29.27C29.0012 26.1 25.1912 23.58 19.7512 23.96C14.4247 24.2516 9.3336 26.2502 5.23121 29.66C-1.68879 35.66 -0.648793 46.89 2.12121 54.78C6.28121 66.66 18.9412 74.89 29.7012 80.27C42.1312 86.48 55.7912 90.08 69.4812 92.16C81.4812 93.98 96.9012 95.31 107.301 87.47C116.851 80.27 119.471 63.83 117.131 52.73C116.564 49.4479 114.818 46.4858 112.221 44.4C105.511 39.5 95.5012 42.77 87.9612 42.94C85.1612 43 82.3112 43.07 79.4512 43.08Z" fill="#F2F2F2"/>
<path d="M58.9712 111.61C79.2455 111.61 95.6812 110.585 95.6812 109.32C95.6812 108.055 79.2455 107.03 58.9712 107.03C38.6968 107.03 22.2612 108.055 22.2612 109.32C22.2612 110.585 38.6968 111.61 58.9712 111.61Z" fill="#F2F2F2"/>
<path d="M96.4812 30.86V35.17" stroke="#BABABA" stroke-linecap="round" stroke-linejoin="round"/>
<path d="M94.3312 33.02H98.6312" stroke="#BABABA" stroke-linecap="round" stroke-linejoin="round"/>
<path d="M24.2612 67.08V71.38" stroke="#BABABA" stroke-linecap="round" stroke-linejoin="round"/>
<path d="M22.1012 69.23H26.4112" stroke="#BABABA" stroke-linecap="round" stroke-linejoin="round"/>
<path d="M18.2312 12.94V17.24" stroke="#BABABA" stroke-linecap="round" stroke-linejoin="round"/>
<path d="M16.0712 15.09H20.3812" stroke="#BABABA" stroke-linecap="round" stroke-linejoin="round"/>
<path d="M65.0912 2.96C65.6324 2.96 66.0712 2.52124 66.0712 1.98C66.0712 1.43876 65.6324 1 65.0912 1C64.55 1 64.1112 1.43876 64.1112 1.98C64.1112 2.52124 64.55 2.96 65.0912 2.96Z" fill="#CFCFCF"/>
<path d="M62.7512 98.56C63.2924 98.56 63.7312 98.1212 63.7312 97.58C63.7312 97.0388 63.2924 96.6 62.7512 96.6C62.2099 96.6 61.7712 97.0388 61.7712 97.58C61.7712 98.1212 62.2099 98.56 62.7512 98.56Z" fill="#CFCFCF"/>
<path d="M83.7967 7.63656L26.7635 13.5606C25.4616 13.6958 24.5158 14.8608 24.651 16.1627L32.4512 91.2587C32.5864 92.5606 33.7515 93.5064 35.0534 93.3712L92.0865 87.4472C93.3884 87.312 94.3342 86.1469 94.199 84.845L86.3988 9.74903C86.2636 8.44712 85.0986 7.50134 83.7967 7.63656Z" fill="#D2D2D2"/>
<path d="M81.3425 11.1029L29.8694 16.4493C28.5675 16.5846 27.6217 17.7496 27.7569 19.0515L34.8112 86.9661C34.9464 88.268 36.1114 89.2138 37.4133 89.0786L88.8864 83.7321C90.1883 83.5969 91.1341 82.4319 90.9989 81.13L83.9447 13.2153C83.8094 11.9134 82.6444 10.9676 81.3425 11.1029Z" fill="white" stroke="#BABABA" stroke-linecap="round" stroke-linejoin="round"/>
<path d="M72.4612 14.43L71.6612 6.73001C71.6211 6.41041 71.4572 6.1193 71.2048 5.91922C70.9523 5.71915 70.6315 5.62608 70.3112 5.66001L60.7912 6.66001C60.7137 5.89178 60.4857 5.14633 60.1201 4.46622C59.7545 3.78612 59.2586 3.18468 58.6606 2.69624C58.0626 2.2078 57.3742 1.84194 56.6348 1.61953C55.8954 1.39712 55.1194 1.32253 54.3512 1.40001C53.5829 1.47749 52.8375 1.70552 52.1574 2.0711C51.4773 2.43667 50.8758 2.93262 50.3874 3.53063C49.401 4.73836 48.9347 6.28849 49.0912 7.84001L39.5412 8.84001C39.3802 8.85625 39.2241 8.90408 39.0817 8.98075C38.9392 9.05742 38.8133 9.16144 38.7112 9.28683C38.609 9.41223 38.5325 9.55655 38.4862 9.71153C38.4399 9.86651 38.4246 10.0291 38.4412 10.19L39.2412 17.89C39.2574 18.0509 39.3053 18.2071 39.3819 18.3495C39.4586 18.492 39.5626 18.6179 39.688 18.72C39.8134 18.8222 39.9577 18.8987 40.1127 18.945C40.2677 18.9913 40.4303 19.0066 40.5912 18.99L71.3712 15.79C71.5327 15.7739 71.6894 15.7257 71.832 15.6482C71.9747 15.5708 72.1004 15.4657 72.2019 15.339C72.3034 15.2124 72.3787 15.0667 72.4232 14.9106C72.4677 14.7546 72.4806 14.5912 72.4612 14.43Z" fill="white" stroke="#BABABA" stroke-linecap="round" stroke-linejoin="round"/>
<path d="M47.7112 61.37C48.0387 58.4026 49.3723 55.6367 51.49 53.5324C53.6078 51.4282 56.3822 50.1123 59.3516 49.8038C62.3211 49.4953 65.3067 50.2127 67.8118 51.8367C70.317 53.4606 72.1906 55.8933 73.1212 58.73" stroke="#BABABA" stroke-linecap="round" stroke-linejoin="round"/>
<path d="M49.1712 38.47L44.3812 44.37" stroke="#BABABA" stroke-linecap="round" stroke-linejoin="round"/>
<path d="M43.8312 39.03L49.7212 43.81" stroke="#BABABA" stroke-linecap="round" stroke-linejoin="round"/>
<path d="M72.3312 36.07L67.5412 41.96" stroke="#BABABA" stroke-linecap="round" stroke-linejoin="round"/>
<path d="M66.9912 36.62L72.8812 41.41" stroke="#BABABA" stroke-linecap="round" stroke-linejoin="round"/>
</svg>
