<svg height="800px" width="800px" version="1.1" id="Layer_1" xmlns="http://www.w3.org/2000/svg" xmlns:xlink="http://www.w3.org/1999/xlink" 
	 viewBox="0 0 512 512" xml:space="preserve">
<g>
	<path d="M463.17,205.559c-4.763-32.004-16.916-62.447-35.492-88.977
		c15.163-9.646,25.253-26.589,25.253-45.853V62.95h-79.798c-20.629-13.953-43.192-23.953-67.247-29.812
		c2.849-6.593,4.436-13.852,4.436-21.479V3.879H201.681v7.779c0,7.623,1.585,14.879,4.432,21.469
		c-22.31,5.441-43.429,14.487-62.903,26.955c-1.457,0.932-2.909,1.893-4.351,2.868H59.07v7.779
		c0,19.265,10.089,36.207,25.253,45.854c-18.577,26.529-30.729,56.972-35.492,88.976H0v7.779c0,28.085,21.425,51.261,48.789,54.04
		c4.235,28.68,14.469,56.251,29.921,80.789H59.07v7.779c0,29.952,24.368,54.32,54.321,54.32c7.062,0,13.805-1.369,19.999-3.832
		c9.982,7.221,20.47,13.493,31.404,18.792l-30.185,67.336h-18.233v15.559h279.249v-15.559h-18.233l-30.186-67.337
		c10.934-5.298,21.421-11.57,31.404-18.792c6.194,2.462,12.938,3.832,19.999,3.832c29.952,0,54.321-24.368,54.321-54.32v-7.779
		h-19.648c15.454-24.538,25.694-52.107,29.93-80.789c27.365-2.78,48.789-25.955,48.789-54.04v-7.779H463.17V205.559z
		 M447.403,205.559h-44.043v7.779c0,5.382,0.799,10.579,2.263,15.491h-103.72c-1.191-7.05-3.972-13.562-7.959-19.162l87.437-87.435
		c5.419,1.817,11.208,2.817,17.231,2.817c5.046,0,9.927-0.706,14.566-2C430.902,147.546,442.604,175.793,447.403,205.559z
		 M436.587,78.508c-3.612,17.658-19.269,30.982-37.979,30.982c-18.71,0-34.366-13.324-37.978-30.982H436.587z M344.288,63.923v6.807
		c0,18.101,8.908,34.152,22.562,44.028l-83.909,83.909c-5.6-3.988-12.112-6.768-19.161-7.959V65.414
		c13.26-1.911,24.979-8.629,33.344-18.325C313.627,50.646,329.402,56.282,344.288,63.923z M263.779,407.239V282.51
		c0.742-0.126,1.478-0.268,2.208-0.427l60.599,135.181c-5.514,2.153-11.132,4.062-16.853,5.704c0.383-2.596,0.587-5.249,0.587-7.949
		v-7.779H263.779z M202.267,422.969c-5.72-1.643-11.338-3.552-16.853-5.704l60.599-135.182c0.73,0.16,1.466,0.302,2.208,0.427
		v124.729H201.68v7.779C201.68,417.719,201.885,420.372,202.267,422.969z M293.978,422.798
		c-3.613,17.658-19.269,30.982-37.978,30.982s-34.366-13.324-37.978-30.982H293.978z M256,267.615
		c-17.096,0-31.005-13.908-31.005-31.005s13.909-31.005,31.005-31.005s31.005,13.909,31.005,31.005S273.096,267.615,256,267.615z
		 M293.978,19.438C290.365,37.096,274.709,50.422,256,50.422s-34.366-13.325-37.978-30.983H293.978z M167.712,70.729v-6.806
		c14.916-7.651,30.704-13.29,47.16-16.839c8.365,9.698,20.086,16.419,33.348,18.33v125.294c-7.049,1.191-13.562,3.971-19.162,7.959
		l-83.909-83.909C158.804,104.881,167.712,88.831,167.712,70.729z M75.413,78.508h75.956c-3.612,17.658-19.269,30.984-37.978,30.984
		C94.682,109.492,79.026,96.166,75.413,78.508z M98.824,123.051c4.64,1.293,9.521,2,14.567,2c6.022,0,11.812-1,17.231-2.818
		l87.435,87.435c-3.988,5.6-6.768,12.112-7.959,19.162h-103.72c1.465-4.912,2.263-10.109,2.263-15.491v-7.779H64.597
		C69.396,175.793,81.098,147.546,98.824,123.051z M16.343,221.118h75.956C88.687,238.776,73.03,252.1,54.321,252.1
		S19.954,238.776,16.343,221.118z M64.441,266.7c14.184-2.684,26.431-10.897,34.413-22.311h111.245
		c1.191,7.049,3.971,13.562,7.959,19.161l-84.618,84.618H97.417C80.32,323.901,69.011,295.947,64.441,266.7z M113.391,394.71
		c-18.71,0-34.366-13.324-37.979-30.982h75.956C147.757,381.385,132.1,394.71,113.391,394.71z M148.081,397.713
		c11.985-9.972,19.631-24.991,19.631-41.765v-7.779h-12.27l73.616-73.616c0.824,0.586,1.663,1.151,2.525,1.684L171.16,411.028
		C163.201,407.147,155.501,402.7,148.081,397.713z M360.342,492.565H151.658l27.382-61.083c9.274,3.66,18.827,6.666,28.634,8.983
		l0.111-0.47c9.058,17.415,27.264,29.345,48.214,29.345c20.951,0,39.158-11.931,48.215-29.349l0.112,0.473
		c9.806-2.316,19.358-5.323,28.631-8.983L360.342,492.565z M340.84,411.027l-60.424-134.791c0.862-0.533,1.701-1.098,2.525-1.684
		l73.616,73.616h-12.27v7.779c0,16.774,7.646,31.793,19.631,41.766C356.499,402.7,348.799,407.147,340.84,411.027z M436.587,363.727
		c-3.612,17.658-19.269,30.982-37.979,30.982c-18.71,0-34.366-13.324-37.978-30.982H436.587z M414.588,348.168h-36.028
		l-84.618-84.617c3.988-5.6,6.768-12.112,7.959-19.162h111.245c7.983,11.414,20.228,19.626,34.413,22.311
		C442.989,295.947,431.683,323.901,414.588,348.168z M457.68,252.1c-18.71,0-34.366-13.324-37.978-30.982h75.956
		C492.045,238.776,476.389,252.1,457.68,252.1z"/>
	<path style="fill:#1D1D1B;" d="M256,213.316c-12.844,0-23.293,10.449-23.293,23.293s10.449,23.292,23.293,23.292
		c12.844,0,23.292-10.449,23.292-23.292S268.844,213.316,256,213.316z M256,244.344c-4.265,0-7.735-3.47-7.735-7.734
		c0-4.265,3.47-7.735,7.735-7.735c4.264,0,7.734,3.47,7.734,7.735C263.735,240.874,260.264,244.344,256,244.344z"/>
</g>
</svg>