<svg width="512" height="512" viewBox="0 0 512 512" fill="none" xmlns="http://www.w3.org/2000/svg">
<path d="M220.837 172.625C211.424 172.625 203.85 180.19 203.85 189.594C203.85 198.997 211.424 206.562 220.837 206.562H239.028L263.519 251.812H157.771L138.377 224.945C135.192 220.491 130.025 217.875 124.575 217.875H84.9375C75.5236 217.875 67.95 225.44 67.95 234.844C67.95 244.247 75.5236 251.812 84.9375 251.812H115.869L131.512 273.518L112.684 311.062C105.606 309.294 98.1736 308.375 90.6 308.375C40.5577 308.375 0 348.888 0 398.875C0 448.862 40.5577 489.375 90.6 489.375C136.82 489.375 174.9 454.801 180.492 410.188H215.175C221.191 410.188 226.712 407.006 229.827 401.845L289.849 300.386L305.209 328.738C284.824 345.353 271.8 370.594 271.8 398.875C271.8 448.862 312.358 489.375 362.4 489.375C412.442 489.375 453 448.862 453 398.875C453 348.888 412.442 308.375 362.4 308.375C352.845 308.375 343.643 309.86 335.008 312.617L265.713 184.503C261.749 177.15 254.105 172.625 245.753 172.625H220.837ZM324.603 364.725L347.465 406.935C351.924 415.207 362.258 418.248 370.469 413.793C378.68 409.339 381.794 399.016 377.335 390.815L354.472 348.605C357.021 348.181 359.71 347.969 362.4 347.969C390.571 347.969 413.362 370.735 413.362 398.875C413.362 427.015 390.571 449.781 362.4 449.781C334.229 449.781 311.437 427.015 311.437 398.875C311.437 385.724 316.392 373.775 324.603 364.725ZM94.2806 410.188H140.288C135.121 432.883 114.807 449.781 90.6 449.781C62.4291 449.781 39.6375 427.015 39.6375 398.875C39.6375 370.735 62.4291 347.969 90.6 347.969C91.8033 347.969 93.0066 348.039 94.2098 348.11L77.0808 382.401C70.7105 395.198 79.9828 410.258 94.2806 410.258V410.188ZM118.134 376.25L154.02 304.628L205.62 376.179L205.549 376.25H118.134ZM182.262 285.75H259.059L224.377 344.292L182.191 285.75H182.262Z" />
<path d="M291.457 70.125H498.543C505.966 70.125 512 64.0986 512 56.6844C512 54.0182 511.195 51.425 509.733 49.2336L482.124 7.81602C478.869 2.92188 473.421 0 467.533 0H322.504C316.653 0 311.167 2.92188 307.913 7.81602L280.267 49.1971C278.805 51.425 278 54.0182 278 56.6479C278 64.0986 284.034 70.125 291.457 70.125ZM301.404 81.8125V140.25V169.469C301.404 179.147 309.266 187 318.956 187H400.869C410.56 187 418.422 179.147 418.422 169.469V140.25V81.8125H395.018V140.25H324.807V81.8125H301.404ZM465.229 81.8125V175.312C465.229 181.777 470.459 187 476.931 187C483.404 187 488.633 181.777 488.633 175.312V81.8125H465.229Z"/>
</svg>
