<svg width="512" height="512" viewBox="0 0 512 512" fill="none" xmlns="http://www.w3.org/2000/svg">
<path d="M220.837 172.625C211.424 172.625 203.85 180.19 203.85 189.594C203.85 198.997 211.424 206.562 220.837 206.562H239.028L263.519 251.812H157.771L138.377 224.945C135.192 220.491 130.025 217.875 124.575 217.875H84.9375C75.5236 217.875 67.95 225.44 67.95 234.844C67.95 244.247 75.5236 251.812 84.9375 251.812H115.869L131.512 273.518L112.684 311.062C105.606 309.294 98.1736 308.375 90.6 308.375C40.5577 308.375 0 348.888 0 398.875C0 448.862 40.5577 489.375 90.6 489.375C136.82 489.375 174.9 454.801 180.492 410.188H215.175C221.191 410.188 226.712 407.006 229.827 401.845L289.849 300.386L305.209 328.738C284.824 345.353 271.8 370.594 271.8 398.875C271.8 448.862 312.358 489.375 362.4 489.375C412.442 489.375 453 448.862 453 398.875C453 348.888 412.442 308.375 362.4 308.375C352.845 308.375 343.643 309.86 335.008 312.617L265.713 184.503C261.749 177.15 254.105 172.625 245.753 172.625H220.837ZM324.603 364.725L347.465 406.935C351.924 415.207 362.258 418.248 370.469 413.793C378.68 409.339 381.794 399.016 377.335 390.815L354.472 348.605C357.021 348.181 359.71 347.969 362.4 347.969C390.571 347.969 413.362 370.735 413.362 398.875C413.362 427.015 390.571 449.781 362.4 449.781C334.229 449.781 311.437 427.015 311.437 398.875C311.437 385.724 316.392 373.775 324.603 364.725ZM94.2806 410.188H140.288C135.121 432.883 114.807 449.781 90.6 449.781C62.4291 449.781 39.6375 427.015 39.6375 398.875C39.6375 370.735 62.4291 347.969 90.6 347.969C91.8033 347.969 93.0066 348.039 94.2098 348.11L77.0808 382.401C70.7105 395.198 79.9828 410.258 94.2806 410.258V410.188ZM118.134 376.25L154.02 304.628L205.62 376.179L205.549 376.25H118.134ZM182.262 285.75H259.059L224.377 344.292L182.191 285.75H182.262Z"/>
<path d="M312.429 11.6875C299.506 11.6875 289 22.1697 289 35.0625V151.938C289 164.83 299.506 175.312 312.429 175.312H429.571C442.494 175.312 453 164.83 453 151.938V35.0625C453 22.1697 442.494 11.6875 429.571 11.6875H312.429ZM359.286 93.5H376.857C383.337 93.5 388.571 88.2771 388.571 81.8125C388.571 75.3479 383.337 70.125 376.857 70.125H359.286V93.5ZM376.857 116.875H359.286V128.562C359.286 135.027 354.051 140.25 347.571 140.25C341.092 140.25 335.857 135.027 335.857 128.562V105.188V61.3594C335.857 53.2877 342.41 46.75 350.5 46.75H376.857C396.259 46.75 412 62.4551 412 81.8125C412 101.17 396.259 116.875 376.857 116.875Z"/>
</svg>
