<svg width="512" height="512" viewBox="0 0 512 512" fill="none" xmlns="http://www.w3.org/2000/svg">
<path d="M220.837 172.625C211.424 172.625 203.85 180.19 203.85 189.594C203.85 198.997 211.424 206.562 220.837 206.562H239.028L263.519 251.812H157.771L138.377 224.945C135.192 220.491 130.025 217.875 124.575 217.875H84.9375C75.5236 217.875 67.95 225.44 67.95 234.844C67.95 244.247 75.5236 251.812 84.9375 251.812H115.869L131.512 273.518L112.684 311.062C105.606 309.294 98.1736 308.375 90.6 308.375C40.5577 308.375 0 348.888 0 398.875C0 448.862 40.5577 489.375 90.6 489.375C136.82 489.375 174.9 454.801 180.492 410.188H215.175C221.191 410.188 226.712 407.006 229.827 401.845L289.849 300.386L305.209 328.738C284.824 345.353 271.8 370.594 271.8 398.875C271.8 448.862 312.358 489.375 362.4 489.375C412.442 489.375 453 448.862 453 398.875C453 348.888 412.442 308.375 362.4 308.375C352.845 308.375 343.643 309.86 335.008 312.617L265.713 184.503C261.749 177.15 254.105 172.625 245.753 172.625H220.837ZM324.603 364.725L347.465 406.935C351.924 415.207 362.258 418.248 370.469 413.793C378.68 409.339 381.794 399.016 377.335 390.815L354.472 348.605C357.021 348.181 359.71 347.969 362.4 347.969C390.571 347.969 413.362 370.735 413.362 398.875C413.362 427.015 390.571 449.781 362.4 449.781C334.229 449.781 311.437 427.015 311.437 398.875C311.437 385.724 316.392 373.775 324.603 364.725ZM94.2806 410.188H140.288C135.121 432.883 114.807 449.781 90.6 449.781C62.4291 449.781 39.6375 427.015 39.6375 398.875C39.6375 370.735 62.4291 347.969 90.6 347.969C91.8033 347.969 93.0066 348.039 94.2098 348.11L77.0808 382.401C70.7105 395.198 79.9828 410.258 94.2806 410.258V410.188ZM118.134 376.25L154.02 304.628L205.62 376.179L205.549 376.25H118.134ZM182.262 285.75H259.059L224.377 344.292L182.191 285.75H182.262Z"/>
<path d="M353.708 1.82617C350.238 -0.876566 345.307 -0.547856 342.166 2.55664L327.557 17.166C324.452 20.2705 324.124 25.2012 326.79 28.7074L356.008 66.6918C357.652 68.8467 360.245 70.125 362.948 70.125H382.707L422.518 109.936C417.149 120.527 418.865 133.822 427.741 142.661L468.647 183.567C473.212 188.132 480.626 188.132 485.192 183.567L508.567 160.192C513.132 155.626 513.132 148.212 508.567 143.647L467.661 102.74C458.822 93.9017 445.527 92.1486 434.936 97.5176L395.125 57.707V37.9478C395.125 35.2086 393.847 32.6519 391.692 31.0084L353.708 1.82617ZM332.268 144.669C327.63 149.308 325 155.626 325 162.201C325 175.897 336.103 187 349.8 187C356.374 187 362.692 184.37 367.331 179.732L410.355 136.707C407.507 129.074 407.068 120.783 409.041 112.93L386.506 90.3955L332.268 144.669ZM512 52.5937C512 48.7588 511.598 45.0334 510.831 41.4541C509.955 37.3635 504.951 36.3043 501.993 39.2627L478.654 62.6012C477.558 63.6969 476.061 64.3178 474.527 64.3178L453.563 64.2812C450.349 64.2812 447.719 61.6516 447.719 58.4375V37.473C447.719 35.9391 448.34 34.4416 449.435 33.3459L472.774 10.0074C475.732 7.04902 474.673 2.04531 470.583 1.16875C466.967 0.401754 463.241 -3.99832e-06 459.406 -3.99832e-06C430.37 -3.99832e-06 406.813 23.5576 406.813 52.5937V52.8859L437.967 84.0404C451.116 80.7168 465.652 84.223 475.951 94.5226L481.686 100.257C499.582 91.8564 512 73.6678 512 52.5937ZM345.453 157.781C345.453 155.456 346.377 153.227 348.021 151.583C349.664 149.939 351.894 149.016 354.219 149.016C356.544 149.016 358.773 149.939 360.417 151.583C362.061 153.227 362.984 155.456 362.984 157.781C362.984 160.106 362.061 162.336 360.417 163.979C358.773 165.623 356.544 166.547 354.219 166.547C351.894 166.547 349.664 165.623 348.021 163.979C346.377 162.336 345.453 160.106 345.453 157.781Z"/>
</svg>
