<svg viewBox="0 0 491 491">
<g>
	<path d="M422.835,247.992c-9.548-25.523-38.255-102.093-38.255-102.093c-6.305-16.804-25.025-25.329-41.835-19.026l-27.255,10.213
		l-43.302,7.746l-44.96-43.15c-3.596-3.48-8.371-4.745-12.99-4.251L169.596,5.939c-1.942-4.036-6.797-5.724-10.888-3.75
		c-4.044,1.974-5.73,6.853-3.756,10.896l45.975,94.214c-2.448,6.002-1.238,13.134,3.729,17.895l9.39,9.003l59.605,122.176
		l-14.457,45.857l-20.503-14.033c-7.164-4.902-12.035-12.488-13.501-21.037l-15.824-91.811c-0.587-3.446-1.75-6.765-3.408-9.83
		l-30.755-56.833L147.915,9.482C146.369,3.886,141.278,0,135.464,0H78.729C71.611,0,65.83,5.78,65.83,12.904v463.251
		c0,7.125,5.781,12.902,12.898,12.902h270.157c4.619,0,8.918-2.483,11.208-6.511c2.293-4.02,2.261-8.971-0.096-12.958
		l-46.358-78.469c-1.019-1.72-1.863-3.534-2.546-5.404l-18.068-49.973c5.174-2.953,9.314-7.722,11.256-13.844l0.507-1.654
		l81.129,166.273c1.398,2.899,4.295,4.577,7.32,4.577c1.195,0,2.421-0.262,3.568-0.827c4.043-1.974,5.73-6.853,3.756-10.896
		l-40.752-83.525c0.315,0.016,0.619,0.16,0.955,0.16c1.846,0,3.756-0.214,5.634-0.661c13.15-3.103,21.286-16.277,18.181-29.419
		l-13.722-58.068l43.81-26.474C423.266,276.178,428.655,263.552,422.835,247.992z M248.144,166.936l7.452,7.164
		c3.056,2.945,7.132,4.545,11.304,4.545c0.955,0,1.91-0.088,2.865-0.256l53.747-9.624l20.518,54.758l-34.75-7.172
		c-12.291-2.531-24.486,4.641-28.258,16.604l-0.272,0.835L248.144,166.936z M311.92,297.653l9.107-28.941l14.948,3.088l-5.65,3.422
		c-9.106,5.492-13.597,16.215-11.16,26.546l4.918,20.864L311.92,297.653z"/>
	<path d="M322.633,121.93c20.203,0,36.585-16.38,36.585-36.591c0-20.203-16.382-36.583-36.585-36.583
		c-20.199,0-36.598,16.38-36.598,36.583C286.036,105.55,302.434,121.93,322.633,121.93z"/>
</g>
</svg>