<?xml version="1.0" encoding="iso-8859-1"?>
<!-- Uploaded to: SVG Repo, www.svgrepo.com, Generator: SVG Repo Mixer Tools -->
<!DOCTYPE svg PUBLIC "-//W3C//DTD SVG 1.1//EN" "http://www.w3.org/Graphics/SVG/1.1/DTD/svg11.dtd">
<svg fill="#000000" version="1.1" id="Capa_1" xmlns="http://www.w3.org/2000/svg" xmlns:xlink="http://www.w3.org/1999/xlink" 
	 width="800px" height="800px" viewBox="0 0 566.418 566.417"
	 xml:space="preserve">
<g>
	<g id="Layer_1_41_">
		<g>
			<path d="M562.972,375.009l-58.649-117.3c-75.226,7.65-100.726,22.95-109.65,34.425c-1.275,2.55-6.375,8.925-1.275,24.225
				c11.476,39.525,0,66.3-11.475,81.601c-28.05,38.25-91.8,54.824-204,54.824c-34.425,0-58.65,7.65-66.3,19.125
				c-7.65,11.476-2.55,31.875,0,38.25l0,0h302.175c11.475,0,21.675-6.375,26.775-15.3c6.375-8.925,6.375-21.675,1.274-30.6
				l-20.399-42.075h110.925c11.475,0,21.675-6.375,26.774-15.3C568.072,396.684,568.072,385.209,562.972,375.009z"/>
			<path d="M333.472,360.984c1.275-2.55,6.375-8.925,1.275-26.774c-10.2-35.7,0-61.2,10.2-76.5
				c20.399-30.6,61.199-48.45,131.324-58.65l-29.324-59.925c-5.101-11.475-16.575-17.85-29.325-17.85s-22.95,6.375-29.325,17.85
				l-52.275,105.825l-82.875-170.85c-5.1-11.475-16.575-17.85-29.325-17.85s-22.95,6.375-29.325,17.85L3.247,462.984
				c-5.1,10.2-3.825,21.675,1.275,31.875c6.375,8.925,16.575,15.3,26.775,15.3h17.85c-3.825-19.125-5.1-45.899,11.475-71.399
				c20.4-31.875,59.925-48.45,118.575-48.45C293.947,390.309,325.822,372.459,333.472,360.984z"/>
		</g>
	</g>
</g>
</svg>