<svg width="143" height="175" viewBox="0 0 143 175" fill="none" xmlns="http://www.w3.org/2000/svg">
<path d="M0.684 146.1H5.832L7.668 153.732L8.964 159.492H9.108L10.62 153.732L12.78 146.1H17.64L19.836 153.732L21.384 159.492H21.528L22.824 153.732L24.66 146.1H29.592L24.372 165H18.792L16.488 157.008L15.156 152.112H15.048L13.752 157.008L11.448 165H5.976L0.684 146.1ZM43.3493 165C42.3893 165 41.5853 164.7 40.9373 164.1C40.3133 163.5 39.9173 162.696 39.7493 161.688H39.5333C39.2453 162.912 38.6093 163.848 37.6253 164.496C36.6413 165.12 35.4293 165.432 33.9893 165.432C32.0933 165.432 30.6413 164.928 29.6333 163.92C28.6253 162.912 28.1213 161.58 28.1213 159.924C28.1213 157.932 28.8413 156.456 30.2813 155.496C31.7453 154.512 33.7253 154.02 36.2213 154.02H39.2093V152.832C39.2093 151.92 38.9693 151.2 38.4893 150.672C38.0093 150.12 37.2053 149.844 36.0773 149.844C35.0213 149.844 34.1813 150.072 33.5573 150.528C32.9333 150.984 32.4173 151.5 32.0093 152.076L28.8413 149.268C29.6093 148.14 30.5693 147.264 31.7213 146.64C32.8973 145.992 34.4813 145.668 36.4733 145.668C39.1613 145.668 41.1773 146.256 42.5213 147.432C43.8653 148.608 44.5373 150.324 44.5373 152.58V160.86H46.3013V165H43.3493ZM35.9693 161.724C36.8573 161.724 37.6133 161.532 38.2373 161.148C38.8853 160.764 39.2093 160.14 39.2093 159.276V157.044H36.6173C34.5293 157.044 33.4853 157.752 33.4853 159.168V159.708C33.4853 160.404 33.7013 160.92 34.1333 161.256C34.5653 161.568 35.1773 161.724 35.9693 161.724ZM46.9974 165V146.1H52.3254V149.304H52.5414C52.8774 148.32 53.4654 147.468 54.3054 146.748C55.1454 146.028 56.3094 145.668 57.7974 145.668C59.7414 145.668 61.2054 146.316 62.1894 147.612C63.1974 148.908 63.7014 150.756 63.7014 153.156V165H58.3734V153.588C58.3734 152.364 58.1814 151.464 57.7974 150.888C57.4134 150.288 56.7294 149.988 55.7454 149.988C55.3134 149.988 54.8934 150.048 54.4854 150.168C54.0774 150.264 53.7054 150.432 53.3694 150.672C53.0574 150.912 52.8054 151.212 52.6134 151.572C52.4214 151.908 52.3254 152.304 52.3254 152.76V165H46.9974ZM77.1548 161.832H76.9748C76.8308 162.336 76.6028 162.816 76.2908 163.272C75.9788 163.704 75.5948 164.088 75.1388 164.424C74.7068 164.736 74.2028 164.976 73.6268 165.144C73.0748 165.336 72.4988 165.432 71.8988 165.432C69.4988 165.432 67.6868 164.592 66.4628 162.912C65.2388 161.208 64.6268 158.748 64.6268 155.532C64.6268 152.316 65.2388 149.868 66.4628 148.188C67.6868 146.508 69.4988 145.668 71.8988 145.668C73.1228 145.668 74.2028 146.004 75.1388 146.676C76.0988 147.348 76.7108 148.212 76.9748 149.268H77.1548V138.36H82.4828V165H77.1548V161.832ZM73.6628 161.112C74.6708 161.112 75.4988 160.872 76.1468 160.392C76.8188 159.888 77.1548 159.204 77.1548 158.34V152.76C77.1548 151.896 76.8188 151.224 76.1468 150.744C75.4988 150.24 74.6708 149.988 73.6628 149.988C72.6548 149.988 71.8148 150.348 71.1428 151.068C70.4948 151.764 70.1708 152.712 70.1708 153.912V157.188C70.1708 158.388 70.4948 159.348 71.1428 160.068C71.8148 160.764 72.6548 161.112 73.6628 161.112ZM92.4691 165.432C91.0291 165.432 89.7451 165.204 88.6171 164.748C87.4891 164.268 86.5291 163.608 85.7371 162.768C84.9691 161.904 84.3811 160.86 83.9731 159.636C83.5891 158.412 83.3971 157.044 83.3971 155.532C83.3971 154.044 83.5891 152.7 83.9731 151.5C84.3571 150.276 84.9211 149.232 85.6651 148.368C86.4331 147.504 87.3691 146.844 88.4731 146.388C89.5771 145.908 90.8371 145.668 92.2531 145.668C93.8131 145.668 95.1451 145.932 96.2491 146.46C97.3771 146.988 98.2891 147.696 98.9851 148.584C99.7051 149.472 100.221 150.504 100.533 151.68C100.869 152.832 101.037 154.044 101.037 155.316V156.9H88.9051V157.188C88.9051 158.436 89.2411 159.432 89.9131 160.176C90.5851 160.896 91.6411 161.256 93.0811 161.256C94.1851 161.256 95.0851 161.04 95.7811 160.608C96.4771 160.152 97.1251 159.612 97.7251 158.988L100.389 162.3C99.5491 163.284 98.4451 164.052 97.0771 164.604C95.7331 165.156 94.1971 165.432 92.4691 165.432ZM92.3611 149.592C91.2811 149.592 90.4291 149.952 89.8051 150.672C89.2051 151.368 88.9051 152.304 88.9051 153.48V153.768H95.5291V153.444C95.5291 152.292 95.2651 151.368 94.7371 150.672C94.2331 149.952 93.4411 149.592 92.3611 149.592ZM101.92 165V146.1H107.248V150.204H107.428C107.524 149.676 107.692 149.172 107.932 148.692C108.172 148.188 108.484 147.744 108.868 147.36C109.276 146.976 109.756 146.676 110.308 146.46C110.86 146.22 111.508 146.1 112.252 146.1H113.188V151.068H111.856C110.296 151.068 109.132 151.272 108.364 151.68C107.62 152.088 107.248 152.844 107.248 153.948V165H101.92ZM121.303 165.432C119.863 165.432 118.579 165.204 117.451 164.748C116.323 164.268 115.363 163.608 114.571 162.768C113.803 161.904 113.215 160.86 112.807 159.636C112.423 158.412 112.231 157.044 112.231 155.532C112.231 154.044 112.423 152.7 112.807 151.5C113.191 150.276 113.755 149.232 114.499 148.368C115.267 147.504 116.203 146.844 117.307 146.388C118.411 145.908 119.671 145.668 121.087 145.668C122.647 145.668 123.979 145.932 125.083 146.46C126.211 146.988 127.123 147.696 127.819 148.584C128.539 149.472 129.055 150.504 129.367 151.68C129.703 152.832 129.871 154.044 129.871 155.316V156.9H117.739V157.188C117.739 158.436 118.075 159.432 118.747 160.176C119.419 160.896 120.475 161.256 121.915 161.256C123.019 161.256 123.919 161.04 124.615 160.608C125.311 160.152 125.959 159.612 126.559 158.988L129.223 162.3C128.383 163.284 127.279 164.052 125.911 164.604C124.567 165.156 123.031 165.432 121.303 165.432ZM121.195 149.592C120.115 149.592 119.263 149.952 118.639 150.672C118.039 151.368 117.739 152.304 117.739 153.48V153.768H124.363V153.444C124.363 152.292 124.099 151.368 123.571 150.672C123.067 149.952 122.275 149.592 121.195 149.592ZM130.754 165V146.1H136.082V150.204H136.262C136.358 149.676 136.526 149.172 136.766 148.692C137.006 148.188 137.318 147.744 137.702 147.36C138.11 146.976 138.59 146.676 139.142 146.46C139.694 146.22 140.342 146.1 141.086 146.1H142.022V151.068H140.69C139.13 151.068 137.966 151.272 137.198 151.68C136.454 152.088 136.082 152.844 136.082 153.948V165H130.754Z" fill="#242734"/>
<path fill-rule="evenodd" clip-rule="evenodd" d="M78.5486 127.669C110.819 124.389 136 97.1354 136 64C136 28.6538 107.346 0 72 0C36.6538 0 8 28.6538 8 64C8 88.081 21.2997 109.056 40.9546 119.979C53.1847 116.013 64.7987 110.896 67.375 105.25C69.0751 101.524 66.3217 97.7504 63.864 94.3821C62.2426 92.1598 60.75 90.1141 60.75 88.375C60.75 80.1424 83.125 77.5 83.125 77.5H90.875C90.875 77.5 70.125 80.125 71.125 88.375C71.46 91.1392 73.6802 93.3515 76.2021 95.8646C78.7434 98.397 81.5911 101.235 83.125 105.25C86.8193 114.92 80.3133 125.157 78.5486 127.669Z" fill="#242734"/>
<path d="M95.053 51.5036C95.4679 50.8321 96.5052 50.8321 96.9201 51.5036L112.091 76.0518C112.505 76.7232 111.987 77.5625 111.157 77.5625H80.8162C79.9863 77.5625 79.4677 76.7232 79.8826 76.0518L95.053 51.5036Z" fill="white"/>
<path d="M49.1809 45.819C49.6531 45.0011 50.8335 45.0011 51.3057 45.819L68.5704 75.7223C69.0426 76.5402 68.4524 77.5625 67.508 77.5625H32.9786C32.0342 77.5625 31.444 76.5402 31.9162 75.7223L49.1809 45.819Z" fill="white"/>
<path d="M74.5626 38.75C75.1399 37.75 76.5833 37.75 77.1606 38.75L98.27 75.3125C98.8474 76.3125 98.1257 77.5625 96.971 77.5625H54.7522C53.5975 77.5625 52.8758 76.3125 53.4532 75.3125L74.5626 38.75Z" fill="white"/>
<path d="M45.1033 28.8496C42.9573 28.8496 41.2175 31.5199 41.2175 34.8138H48.9892C48.9892 31.5199 47.2494 28.8496 45.1033 28.8496Z" fill="white"/>
<path d="M38.7776 28.8496C35.0344 28.8496 32 31.5199 32 34.8138H45.5552C45.5552 31.5199 42.5207 28.8496 38.7776 28.8496Z" fill="white"/>
<path d="M41.579 26.5C39.383 26.5 37.6028 28.8466 37.6028 31.7413H45.5551C45.5551 28.8466 43.7749 26.5 41.579 26.5Z" fill="white"/>
<path d="M77 16.75C74.1005 16.75 71.75 19.9959 71.75 24H82.25C82.25 19.9959 79.8995 16.75 77 16.75Z" fill="white"/>
<path d="M70.5 19.75C67.4624 19.75 65 21.6528 65 24H76C76 21.6528 73.5376 19.75 70.5 19.75Z" fill="white"/>
<path d="M71.75 15.75C69.4028 15.75 67.5 18.1005 67.5 21H76C76 18.1005 74.0972 15.75 71.75 15.75Z" fill="white"/>
<path d="M107.125 27.5C104.985 27.5 103.25 29.7386 103.25 32.5H111C111 29.7386 109.265 27.5 107.125 27.5Z" fill="white"/>
<path d="M99.25 27.25C96.2124 27.25 93.75 29.6005 93.75 32.5H104.75C104.75 29.6005 102.288 27.25 99.25 27.25Z" fill="white"/>
<path d="M102.25 24.5C99.0744 24.5 96.5 26.8505 96.5 29.75H108C108 26.8505 105.426 24.5 102.25 24.5Z" fill="white"/>
<path d="M36.3917 105.29C36.3917 104.876 36.7275 104.54 37.1417 104.54H38.8212C39.2354 104.54 39.5712 104.876 39.5712 105.29V106.44C39.5712 106.854 39.2354 107.19 38.8212 107.19H37.1417C36.7275 107.19 36.3917 106.854 36.3917 106.44V105.29Z" fill="white"/>
<path d="M37.3446 98.5749C37.7143 98.2696 38.2486 98.2696 38.6183 98.5749L44.0977 103.101C44.8206 103.698 44.3984 104.872 43.4609 104.872H32.502C31.5645 104.872 31.1424 103.698 31.8652 103.101L37.3446 98.5749Z" fill="white"/>
<path d="M37.293 95.5231C37.6789 95.1568 38.2841 95.1568 38.67 95.5231L43.6299 100.232C44.2851 100.854 43.8449 101.957 42.9414 101.957H33.0215C32.1181 101.957 31.6778 100.854 32.333 100.232L37.293 95.5231Z" fill="white"/>
<path d="M37.214 92.609C37.6137 92.1303 38.3493 92.1303 38.749 92.609L42.7518 97.4015C43.2956 98.0527 42.8326 99.0426 41.9843 99.0426H33.9787C33.1304 99.0426 32.6674 98.0527 33.2112 97.4015L37.214 92.609Z" fill="white"/>
<path d="M94.8917 99.2904C94.8917 98.8762 95.2275 98.5404 95.6417 98.5404H97.3212C97.7354 98.5404 98.0712 98.8762 98.0712 99.2904V100.44C98.0712 100.854 97.7354 101.19 97.3212 101.19H95.6417C95.2275 101.19 94.8917 100.854 94.8917 100.44V99.2904Z" fill="white"/>
<path d="M95.8446 92.5749C96.2143 92.2696 96.7486 92.2696 97.1183 92.5749L102.598 97.1006C103.321 97.6976 102.898 98.8716 101.961 98.8716H91.002C90.0645 98.8716 89.6424 97.6976 90.3652 97.1006L95.8446 92.5749Z" fill="white"/>
<path d="M95.793 89.5231C96.1789 89.1568 96.7841 89.1568 97.17 89.5231L102.13 94.2319C102.785 94.8539 102.345 95.9571 101.441 95.9571H91.5215C90.6181 95.9571 90.1778 94.8539 90.833 94.2319L95.793 89.5231Z" fill="white"/>
<path d="M95.714 86.609C96.1137 86.1303 96.8493 86.1303 97.249 86.609L101.252 91.4015C101.796 92.0527 101.333 93.0426 100.484 93.0426H92.4787C91.6304 93.0426 91.1674 92.0527 91.7112 91.4015L95.714 86.609Z" fill="white"/>
</svg>
